<?xml version="1.0" encoding="utf-8"?>
<!-- Generator: Adobe Illustrator 23.0.1, SVG Export Plug-In . SVG Version: 6.00 Build 0)  -->
<svg version="1.1" id="Calque_1" xmlns="http://www.w3.org/2000/svg" xmlns:xlink="http://www.w3.org/1999/xlink" x="0px" y="0px"
	 viewBox="0 0 182 50" style="enable-background:new 0 0 182 50;" xml:space="preserve">
<style type="text/css">
	.st0{fill:#1CD2CE;}
</style>
<path class="st0" d="M121.7,30v9c0,1.1-0.9,2-2,2h-2.1V24.3c0-1.1,0.9-2,2-2h1.8v1.5c0.4-0.7,1-1.2,1.7-1.5c0.7-0.4,1.5-0.5,2.4-0.5
	c1,0,2,0.3,2.7,1l-1.5,3.7c-0.5-0.5-1.2-0.7-1.9-0.7C124.2,25.7,121.7,26.1,121.7,30z"/>
<path class="st0" d="M24.5,30v9c0,1.1-0.9,2-2,2h-2.1V24.3c0-1.1,0.9-2,2-2h1.8v1.5c0.4-0.7,1-1.2,1.7-1.5c0.7-0.4,1.5-0.5,2.4-0.5
	c1,0,2,0.3,2.7,1l-1.5,3.7c-0.6-0.5-1.3-0.7-2-0.7C27,25.7,24.5,26.1,24.5,30z"/>
<path class="st0" d="M8.2,21.7c-0.9,0-1.9,0.2-2.7,0.6c-0.5,0.3-1,0.6-1.4,1v-1.1H2c-1.1,0-2,0.9-2,2V50h2.1c1.1,0,2-0.9,2-2v-8.3
	c0.4,0.4,0.9,0.8,1.4,1c0.8,0.4,1.8,0.6,2.7,0.6c1.2,0,7.9-0.4,7.9-9.8C16.1,22,9.4,21.7,8.2,21.7z M8.1,37.3c-2.7,0-4-2.3-4-5.8
	s1.2-5.8,4-5.8c1.7,0,4,0.9,4,5.8C12.1,36.2,9.8,37.3,8.1,37.3z"/>
<path class="st0" d="M130.9,23.8c0.8-0.6,1.6-1.1,2.6-1.4c1.3-0.4,2.6-0.6,4-0.6c2-0.1,3.9,0.6,5.4,2c1.2,1.3,1.8,3.4,1.8,6.3V39
	c0,1.1-0.9,2-2,2h-1.6v-1.5c-0.6,0.6-1.3,1.1-2.1,1.5c-0.9,0.4-1.8,0.5-2.8,0.5c-0.8,0-1.6-0.1-2.4-0.4c-0.8-0.2-1.5-0.6-2.1-1.2
	c-0.6-0.5-1.2-1.2-1.5-2c-0.4-0.9-0.6-1.9-0.6-3c0-0.9,0.2-1.9,0.6-2.7c0.4-0.7,1-1.4,1.6-1.9c0.7-0.5,1.5-0.9,2.3-1.1
	c0.9-0.2,1.9-0.4,2.8-0.4c0.8,0,1.6,0.1,2.3,0.4c0.6,0.2,1.1,0.5,1.6,0.9c0.1-1.2-0.2-2.4-0.7-3.5c-0.6-0.8-1.7-1.3-2.7-1.1
	c-0.9,0-1.8,0.1-2.7,0.5h-0.1c-1,0.4-2.2,0-2.7-0.9C131.5,24.8,130.9,23.8,130.9,23.8z M140.6,33.3c-0.5-0.4-1-0.7-1.6-0.9
	c-0.7-0.2-1.5-0.4-2.2-0.3c-0.9-0.1-1.9,0.2-2.7,0.7c-0.7,0.5-1,1.3-0.9,2.2c-0.1,0.8,0.3,1.6,0.9,2.2c1.2,0.7,2.6,0.9,3.9,0.5
	c0.4-0.1,0.8-0.3,1.1-0.4c0.3-0.2,0.6-0.4,0.9-0.6c0.2-0.2,0.4-0.4,0.6-0.7V33.3z"/>
<path class="st0" d="M148.9,41h4.1V30c0-3.4,2-4.1,3.4-4.1c0.9-0.1,1.7,0.3,2.2,0.9c0.6,0.8,0.9,1.9,0.8,2.9V41h2.1c1.1,0,2-0.9,2-2
	V28.9c0-1-0.1-2-0.4-3c-0.3-0.8-0.7-1.6-1.3-2.2c-0.5-0.6-1.1-1.1-1.8-1.4c-0.7-0.3-1.5-0.5-2.3-0.5c-0.9,0-1.8,0.2-2.6,0.5
	c-0.9,0.3-1.6,0.9-2.3,1.5v-1.5H151c-1.1,0-2,0.9-2,2L148.9,41z"/>
<path class="st0" d="M93.2,21.7c1.1,0,2.2,0.2,3.2,0.6c1,0.4,1.8,1.1,2.5,1.9c0.8,0.9,1.3,2,1.7,3.1c0.4,1.4,0.6,2.8,0.6,4.3
	c0,1.4-0.2,2.9-0.6,4.2c-0.3,1.1-0.9,2.2-1.7,3.1c-0.7,0.8-1.6,1.5-2.6,1.9c-2.1,0.8-4.4,0.8-6.5,0c-1-0.4-1.9-1.1-2.6-1.9
	c-0.8-0.9-1.3-1.9-1.7-3.1c-0.4-1.4-0.6-2.8-0.6-4.2c0-1.4,0.2-2.9,0.6-4.3c0.3-1.1,0.9-2.2,1.7-3.1c0.7-0.8,1.6-1.4,2.6-1.9
	C91,21.9,92.1,21.7,93.2,21.7z M93.2,25.8c-1.1-0.1-2.2,0.5-2.9,1.4c-0.8,1.3-1.1,2.8-1,4.4c-0.1,1.5,0.2,3,1,4.3
	c1.2,1.6,3.5,1.9,5.1,0.7c0.3-0.2,0.5-0.5,0.7-0.7c0.8-1.3,1.2-2.8,1.1-4.3c0.1-1.5-0.3-3.1-1.1-4.4C95.5,26.3,94.4,25.8,93.2,25.8
	L93.2,25.8z"/>
<path class="st0" d="M80.5,25.8c-0.3-0.8-0.7-1.6-1.3-2.2c-0.5-0.6-1.2-1-1.9-1.3c-0.7-0.3-1.5-0.5-2.3-0.5c-0.9,0-1.8,0.2-2.6,0.5
	c-0.9,0.4-1.6,0.9-2.3,1.5c-0.3,0.2-0.5,0.5-0.7,0.8c-0.2-0.4-0.4-0.7-0.7-1c-0.4-0.4-0.8-0.8-1.3-1.1c-0.2-0.1-0.4-0.2-0.5-0.3
	c-0.7-0.3-1.5-0.5-2.3-0.5c-0.9,0-1.8,0.2-2.6,0.5c-0.9,0.3-1.6,0.9-2.3,1.5v-1.5h-1.8c-1.1,0-2,0.9-2,2V41H60V30
	c0-3.4,2-4.1,3.3-4.1c0.9-0.1,1.7,0.3,2.3,0.9c0.6,0.8,0.9,1.9,0.8,2.9V41h4.1V29.7c-0.1-2,1.4-3.7,3.3-3.8c0.9-0.1,1.7,0.3,2.2,0.9
	c0.6,0.8,0.9,1.9,0.8,2.9V41H79c1.1,0,2-0.9,2-2V28.9C81,27.8,80.8,26.8,80.5,25.8z"/>
<path class="st0" d="M114.1,22.3v-4.1h-4.7v-4.9h-1.8c-1.1,0-2,0.9-2,2v2.8h-2.3v4.1h2.3v10.9c0,2.9,0.6,5,1.8,6.3
	c1.4,1.4,3.4,2.1,5.3,2c0.5,0,1-0.1,1.4-0.2l-0.4-2.4c0-0.6-0.5-1.2-1.1-1.4c-0.4-0.1-0.9-0.2-1.3-0.2c-0.5,0-1-0.3-1.3-0.7
	c-0.5-1.1-0.7-2.3-0.6-3.5V22.3H114.1z"/>
<path class="st0" d="M177.9,35.9c-0.2,2.1-3.6,1.7-3.6,1.7c-1.3-0.1-2.6-0.4-3.7-0.9c-1.1-0.4-2.1-0.7-2.6,0.4s-0.9,2-0.9,2
	c0.8,0.5,1.6,1,2.5,1.4c1.4,0.6,2.9,0.9,4.4,0.9c2,0.1,4-0.4,5.7-1.3c0.7-0.4,1.3-1.1,1.7-1.8c0.4-0.8,0.7-1.7,0.6-2.7
	c0-1-0.2-2.1-0.8-2.9c-0.5-0.7-1.2-1.4-1.9-1.8c-0.8-0.5-1.7-0.9-2.6-1.2c-0.9-0.3-1.8-0.7-2.6-1c-0.5-0.2-0.9-0.5-1.4-0.7
	c-0.4-0.3-0.7-0.6-0.7-0.9c0-0.5,0.2-0.9,0.6-1.1c0.6-0.3,1.2-0.4,1.8-0.4c1.2,0,2.5,0.3,3.6,0.7c1.1,0.3,2,0.5,2.4-0.5s0.8-2,0.8-2
	c-0.8-0.5-1.6-0.9-2.5-1.2c-1.4-0.5-2.8-0.7-4.2-0.7c-0.8,0-1.5,0.1-2.3,0.3c-0.8,0.2-1.5,0.5-2.2,0.9c-0.7,0.4-1.2,1-1.6,1.7
	c-0.4,0.8-0.7,1.6-0.6,2.5c0,1,0.2,2,0.8,2.8c0.5,0.7,1.2,1.3,1.9,1.7c0.8,0.5,1.6,0.8,2.5,1.1C175.8,33.6,178.1,34,177.9,35.9z"/>
<path class="st0" d="M5.6,8.6h2.9c0,0.3-0.1,0.7-0.2,1c-0.1,0.3-0.3,0.6-0.6,0.8c-0.3,0.2-0.6,0.4-0.9,0.6c-0.8,0.3-1.7,0.3-2.5,0
	c-0.4-0.2-0.8-0.5-1.1-0.8C2.8,9.8,2.6,9.3,2.4,8.8c-0.2-0.7-0.3-1.3-0.2-2c0-0.7,0.1-1.3,0.2-2c0.1-0.5,0.4-1,0.7-1.4
	C3.4,3,3.8,2.7,4.2,2.6c0.4-0.2,0.9-0.3,1.4-0.3c1,0,2,0.4,2.7,1.2l0.2,0.3l1.7-1.2L10,2.3C9.5,1.6,8.9,1,8.1,0.5
	C6.6-0.1,4.9-0.2,3.4,0.4C2.7,0.7,2.1,1.2,1.6,1.7C1.1,2.4,0.7,3.1,0.4,3.9C0.1,4.8,0,5.7,0,6.7c0,1,0.1,1.9,0.4,2.9
	c0.3,0.8,0.7,1.5,1.2,2.1c0.5,0.6,1.1,1,1.8,1.3c0.7,0.3,1.5,0.4,2.2,0.4c0.7,0,1.5-0.1,2.2-0.4c1.2-0.5,2.1-1.5,2.6-2.7
	c0.2-0.6,0.3-1.3,0.3-1.9V6.5H5.6V8.6z"/>
<path class="st0" d="M19.3,3.3c-0.1,0.1-0.2,0.1-0.3,0.2V3.2h-2.1v10H19V6.6c0.1-0.4,0.3-0.8,0.6-1.2c0.4-0.4,1.1-0.5,1.6-0.1
	l0.4,0.2l0.8-2l-0.2-0.2C21.3,2.8,20.2,2.7,19.3,3.3z"/>
<path class="st0" d="M34.7,4.3c-0.4-0.4-0.9-0.8-1.4-1c-1.1-0.5-2.4-0.5-3.5,0c-0.5,0.2-1,0.6-1.4,1c-0.4,0.5-0.7,1-0.9,1.7
	c-0.2,0.7-0.3,1.5-0.3,2.2c0,0.7,0.1,1.5,0.3,2.2c0.2,0.6,0.5,1.2,0.9,1.6c0.4,0.4,0.8,0.8,1.4,1c1.1,0.5,2.4,0.5,3.5,0
	c0.5-0.2,1-0.6,1.4-1c0.4-0.5,0.7-1.1,0.9-1.7c0.2-0.7,0.3-1.5,0.3-2.2c0-0.8-0.1-1.5-0.3-2.2C35.4,5.3,35.1,4.8,34.7,4.3z
	 M33.8,8.1c0.1,0.8-0.1,1.7-0.6,2.4c-0.7,0.9-2,1-2.8,0.3c-0.1-0.1-0.2-0.2-0.3-0.3c-0.5-0.7-0.7-1.5-0.6-2.4
	c-0.1-0.8,0.1-1.7,0.6-2.4c0.7-0.9,2-1,2.8-0.3c0.1,0.1,0.2,0.2,0.3,0.3C33.6,6.5,33.8,7.3,33.8,8.1z"/>
<path class="st0" d="M47.6,9.7c-0.2,0.4-0.4,0.9-0.8,1.2c-0.3,0.2-0.6,0.4-1,0.3c-0.5,0-0.9-0.1-1.2-0.5c-0.3-0.6-0.5-1.3-0.4-2V3.2
	h-2.1v6.2c0,0.6,0.1,1.2,0.2,1.7c0.1,0.5,0.4,0.9,0.7,1.2c0.3,0.3,0.7,0.6,1.1,0.8c0.4,0.2,0.9,0.3,1.3,0.2c0.5,0,1.1-0.1,1.5-0.4
	c0.2-0.1,0.4-0.2,0.6-0.4v0.4h2.1v-10h-2.2V9.7z"/>
<path class="st0" d="M62.8,4.3c-0.3-0.4-0.8-0.8-1.3-1c-1.1-0.5-2.3-0.5-3.3,0.1c-0.1,0.1-0.3,0.2-0.4,0.2V3.2h-2v13.4l2.2-0.7v-3.2
	c0.6,0.4,1.3,0.7,2,0.6c1.1,0,2.2-0.5,2.8-1.4c0.8-1.1,1.2-2.5,1.1-3.9c0-0.7-0.1-1.5-0.3-2.2C63.4,5.3,63.2,4.8,62.8,4.3z
	 M61.8,8.1c0.1,0.8-0.1,1.7-0.6,2.4c-0.3,0.5-0.9,0.8-1.5,0.7c-0.4,0-0.8-0.1-1.1-0.4c-0.4-0.3-0.6-0.7-0.8-1.2V6.6
	C58,6.4,58.1,6.2,58.2,6c0.1-0.2,0.3-0.4,0.4-0.5c0.2-0.2,0.3-0.3,0.5-0.4C59.3,5,59.5,5,59.8,5c0.6,0,1.1,0.2,1.5,0.7
	C61.6,6.5,61.8,7.3,61.8,8.1L61.8,8.1z"/>
<path class="st0" d="M77.1,5.9c-0.2-0.6-0.5-1.2-0.9-1.6c-0.4-0.4-0.8-0.8-1.3-1c-1.1-0.5-2.4-0.5-3.5,0c-0.5,0.2-1,0.6-1.4,1
	c-0.4,0.5-0.7,1.1-0.9,1.7c-0.2,0.7-0.3,1.5-0.3,2.2c0,0.8,0.1,1.5,0.3,2.2c0.2,0.6,0.5,1.1,0.9,1.6c0.4,0.4,0.9,0.8,1.4,1
	c0.6,0.2,1.1,0.3,1.7,0.3c0.7,0,1.3-0.1,1.9-0.3c0.6-0.3,1.1-0.7,1.4-1.2l0.2-0.3l-1.5-1.4l-0.2,0.3c-0.2,0.3-0.5,0.4-0.8,0.6
	c-0.3,0.1-0.7,0.2-1,0.2c-0.6,0-1.2-0.2-1.6-0.6c-0.4-0.5-0.6-1-0.7-1.6h6.1l0.1-0.2c0.1-0.2,0.1-0.4,0.1-0.7
	C77.4,7.4,77.3,6.6,77.1,5.9z M71.1,7c0.1-0.5,0.3-1.1,0.6-1.5C72.1,5.1,72.6,5,73.2,5c0.5,0,1,0.2,1.4,0.6c0.3,0.4,0.5,1,0.6,1.5
	L71.1,7z"/>
<path class="st0" d="M45.5,40.6l6-7.9l0.2-0.3c0.2-0.3,0.3-0.6,0.3-1c0-0.4-0.1-0.7-0.3-1l-0.2-0.3l-6-7.9c-0.3-0.4-0.8-0.7-1.3-0.7
	c-0.8,0-1.5,0.7-1.5,1.5l0,0v2.4l4.5,5.9l-4.5,5.9v2.4c0,0.8,0.7,1.5,1.5,1.5l0,0C44.7,41.3,45.2,41,45.5,40.6z"/>
<path class="st0" d="M37.8,40.6l-6-7.9l-0.2-0.3c-0.2-0.3-0.3-0.6-0.3-1c0-0.4,0.1-0.7,0.3-1l0.2-0.3l6-7.9c0.3-0.4,0.8-0.7,1.3-0.7
	c0.8,0,1.5,0.7,1.5,1.5l0,0v2.4L36,31.4l4.5,5.9v2.4c0,0.8-0.7,1.5-1.5,1.5l0,0C38.5,41.2,38.1,41,37.8,40.6z"/>
</svg>
