<?xml version="1.0" encoding="UTF-8" standalone="no"?>
<!-- Created with Inkscape (http://www.inkscape.org/) -->

<svg
   width="210mm"
   height="297mm"
   viewBox="0 0 210 297"
   version="1.1"
   id="svg1"
   xml:space="preserve"
   inkscape:export-filename="logo.webp"
   inkscape:export-xdpi="96"
   inkscape:export-ydpi="96"
   inkscape:version="1.3.2 (091e20e, 2023-11-25, custom)"
   sodipodi:docname="redbrush logo chart.svg"
   xmlns:inkscape="http://www.inkscape.org/namespaces/inkscape"
   xmlns:sodipodi="http://sodipodi.sourceforge.net/DTD/sodipodi-0.dtd"
   xmlns="http://www.w3.org/2000/svg"
   xmlns:svg="http://www.w3.org/2000/svg"><sodipodi:namedview
     id="namedview1"
     pagecolor="#ffffff"
     bordercolor="#000000"
     borderopacity="0.25"
     inkscape:showpageshadow="2"
     inkscape:pageopacity="0.0"
     inkscape:pagecheckerboard="0"
     inkscape:deskcolor="#d1d1d1"
     inkscape:document-units="mm"
     inkscape:zoom="0.72426347"
     inkscape:cx="396.26464"
     inkscape:cy="671.71688"
     inkscape:window-width="1920"
     inkscape:window-height="1009"
     inkscape:window-x="1912"
     inkscape:window-y="66"
     inkscape:window-maximized="1"
     inkscape:current-layer="layer1" /><defs
     id="defs1" /><g
     inkscape:label="Layer 1"
     inkscape:groupmode="layer"
     id="layer1"><g
       id="g1"
       style="fill:#dc2626;fill-opacity:1"
       transform="translate(8.9819205,-2.9225092)"><path
         style="fill:#dc2626;fill-opacity:1"
         d="m 52.446319,270.7622 c 24.010935,-0.05 63.301561,-0.05 87.312491,0 24.01094,0.05 4.36563,0.091 -43.656245,0.091 -48.021871,0 -67.667182,-0.0409 -43.656246,-0.091 z m 44.648434,-24.67086 c 0.254661,-0.10191 0.558932,-0.0894 0.676157,0.0279 0.117225,0.11723 -0.09113,0.2006 -0.463021,0.18529 -0.410966,-0.0169 -0.494559,-0.10052 -0.213136,-0.21314 z m 38.613827,-3.88404 c 0.34324,-0.0894 0.81949,-0.0836 1.05833,0.0131 0.23885,0.0966 -0.042,0.16982 -0.62407,0.16263 -0.58208,-0.007 -0.7775,-0.0863 -0.43426,-0.1757 z m -34.00657,-85.03955 c -0.43881,-0.55952 -0.42633,-0.572 0.13319,-0.13319 0.33955,0.26629 0.61736,0.5441 0.61736,0.61736 0,0.29035 -0.28969,0.10347 -0.75055,-0.48417 z"
         id="path6" /><path
         style="fill:#dc2626;fill-opacity:1"
         d="m 51.3947,246.08786 c 0.343241,-0.0894 0.819491,-0.0836 1.058333,0.0131 0.238842,0.0966 -0.04199,0.16981 -0.624075,0.16262 -0.582084,-0.007 -0.7775,-0.0863 -0.434258,-0.17569 z m 66.84467,-2.10584 c 0.24253,-0.0979 0.63941,-0.0979 0.88194,0 0.24254,0.0979 0.0441,0.17794 -0.44097,0.17794 -0.48507,0 -0.68351,-0.0801 -0.44097,-0.17794 z m 36.68888,-4.23333 c 0.24254,-0.0979 0.63941,-0.0979 0.88195,0 0.24253,0.0979 0.0441,0.17794 -0.44097,0.17794 -0.48507,0 -0.68351,-0.0801 -0.44098,-0.17794 z m 7.40834,-9.87778 c 0.24253,-0.0979 0.63941,-0.0979 0.88194,0 0.24254,0.0979 0.0441,0.17794 -0.44097,0.17794 -0.48507,0 -0.68351,-0.0801 -0.44097,-0.17794 z m -4.21129,-16.23512 c 0.25466,-0.10191 0.55894,-0.0894 0.67616,0.0279 0.11723,0.11722 -0.0911,0.2006 -0.46302,0.18528 -0.41097,-0.0169 -0.49456,-0.10052 -0.21314,-0.21313 z M 98.572009,184.77261 c 0.4557,-0.48507 0.907919,-0.88194 1.004933,-0.88194 0.09701,0 -0.196456,0.39687 -0.652155,0.88194 -0.455699,0.48507 -0.907918,0.88194 -1.004932,0.88194 -0.09701,0 0.196455,-0.39687 0.652154,-0.88194 z m -1.437811,-26.54653 -0.855244,-0.97013 0.970139,0.85524 c 0.533576,0.47038 0.970139,0.90695 0.970139,0.97014 0,0.27667 -0.285679,0.0515 -1.085034,-0.85525 z M 120.1193,145.93766 c 0.0169,-0.41097 0.10052,-0.49456 0.21314,-0.21314 0.10191,0.25466 0.0894,0.55893 -0.0279,0.67616 -0.11723,0.11723 -0.2006,-0.0911 -0.18529,-0.46302 z"
         id="path5" /><path
         style="fill:#dc2626;fill-opacity:1"
         d="m 9.2530931,263.02467 c 0.2546614,-0.10191 0.5589322,-0.0894 0.6761573,0.0279 0.1172256,0.11723 -0.091134,0.20061 -0.4630208,0.18529 -0.4109659,-0.0169 -0.4945589,-0.10052 -0.2131365,-0.21314 z m 32.1027749,0 c 0.254662,-0.10191 0.558933,-0.0894 0.676158,0.0279 0.117225,0.11723 -0.09114,0.20061 -0.463021,0.18529 -0.410966,-0.0169 -0.494559,-0.10052 -0.213137,-0.21314 z m 3.880556,0 c 0.254661,-0.10191 0.558932,-0.0894 0.676157,0.0279 0.117225,0.11723 -0.09113,0.20061 -0.463021,0.18529 -0.410966,-0.0169 -0.494559,-0.10052 -0.213136,-0.21314 z m 21.87222,0 c 0.254661,-0.10191 0.558932,-0.0894 0.676157,0.0279 0.117225,0.11723 -0.09113,0.20061 -0.46302,0.18529 -0.410966,-0.0169 -0.494559,-0.10052 -0.213137,-0.21314 z m 11.288888,0 c 0.254661,-0.10191 0.558932,-0.0894 0.676157,0.0279 0.117225,0.11723 -0.09113,0.20061 -0.463021,0.18529 -0.410965,-0.0169 -0.494558,-0.10052 -0.213136,-0.21314 z m 98.586048,-0.003 c 0.34324,-0.0894 0.81949,-0.0836 1.05833,0.0131 0.23884,0.0966 -0.042,0.16981 -0.62407,0.16263 -0.58209,-0.007 -0.7775,-0.0863 -0.43426,-0.1757 z m -57.31105,-19.04652 c 0.25466,-0.1019 0.55893,-0.0894 0.67616,0.0279 0.11722,0.11723 -0.0911,0.20061 -0.46302,0.18529 -0.41097,-0.0169 -0.49456,-0.10052 -0.21314,-0.21314 z m 18.15272,-2.12015 c 0.34324,-0.0894 0.81949,-0.0836 1.05833,0.0131 0.23884,0.0966 -0.042,0.16982 -0.62407,0.16263 -0.58209,-0.007 -0.7775,-0.0863 -0.43426,-0.1757 z M 32.249793,208.40872 c 0.455699,-0.48507 0.907918,-0.88195 1.004932,-0.88195 0.09701,0 -0.196456,0.39688 -0.652155,0.88195 -0.455699,0.48507 -0.907918,0.88194 -1.004932,0.88194 -0.09701,0 0.196456,-0.39687 0.652155,-0.88194 z M 96.808121,186.5365 c 0.455699,-0.48507 0.907918,-0.88195 1.004932,-0.88195 0.09701,0 -0.196455,0.39688 -0.652155,0.88195 -0.455699,0.48507 -0.907918,0.88194 -1.004932,0.88194 -0.09701,0 0.196456,-0.39687 0.652155,-0.88194 z m 8.609539,-26.01736 -0.67204,-0.79375 0.79375,0.67204 c 0.43656,0.36962 0.79375,0.7268 0.79375,0.79375 0,0.28231 -0.28391,0.0739 -0.91546,-0.67204 z m -23.98889,-22.225 -0.672037,-0.79375 0.79375,0.67204 c 0.745929,0.63155 0.954349,0.91546 0.672037,0.91546 -0.06694,0 -0.424129,-0.35719 -0.79375,-0.79375 z m 7.007593,-14.97294 c 0.343242,-0.0894 0.819491,-0.0836 1.058333,0.0131 0.238842,0.0966 -0.04199,0.16982 -0.624075,0.16263 -0.582083,-0.007 -0.777499,-0.0863 -0.434258,-0.1757 z"
         id="path4" /><path
         style="fill:#dc2626;fill-opacity:1"
         d="m 21.401877,270.07804 c 0.339548,-0.0887 0.895173,-0.0887 1.234722,0 0.339549,0.0887 0.06174,0.16133 -0.617361,0.16133 -0.679097,0 -0.95691,-0.0726 -0.617361,-0.16133 z m 4.938888,0 c 0.339549,-0.0887 0.895174,-0.0887 1.234722,0 0.339549,0.0887 0.06174,0.16133 -0.617361,0.16133 -0.679097,0 -0.956909,-0.0726 -0.617361,-0.16133 z m 5.468055,0.01 c 0.242535,-0.0979 0.63941,-0.0979 0.881945,0 0.242534,0.0979 0.0441,0.17793 -0.440972,0.17793 -0.48507,0 -0.683507,-0.0801 -0.440973,-0.17793 z m 2.138716,-0.007 c 0.254661,-0.10191 0.558932,-0.0894 0.676157,0.0279 0.117225,0.11722 -0.09113,0.2006 -0.463021,0.18528 -0.410966,-0.0169 -0.494559,-0.10052 -0.213136,-0.21313 z m 4.233333,0 c 0.254661,-0.10191 0.558932,-0.0894 0.676157,0.0279 0.117225,0.11722 -0.09113,0.2006 -0.463021,0.18528 -0.410966,-0.0169 -0.494559,-0.10052 -0.213136,-0.21313 z m 1.411111,0 c 0.254661,-0.10191 0.558932,-0.0894 0.676157,0.0279 0.117225,0.11722 -0.09113,0.2006 -0.463021,0.18528 -0.410966,-0.0169 -0.494559,-0.10052 -0.213136,-0.21313 z m 13.052776,0 c 0.254662,-0.10191 0.558932,-0.0894 0.676158,0.0279 0.117225,0.11722 -0.09114,0.2006 -0.463021,0.18528 -0.410966,-0.0169 -0.494559,-0.10052 -0.213137,-0.21313 z m 7.408333,0 c 0.254661,-0.10191 0.558932,-0.0894 0.676157,0.0279 0.117225,0.11722 -0.09113,0.2006 -0.46302,0.18528 -0.410966,-0.0169 -0.494559,-0.10052 -0.213137,-0.21313 z m 4.938888,0 c 0.254662,-0.10191 0.558933,-0.0894 0.676158,0.0279 0.117225,0.11722 -0.09113,0.2006 -0.463021,0.18528 -0.410966,-0.0169 -0.494559,-0.10052 -0.213137,-0.21313 z m 7.21661,-0.003 c 0.343241,-0.0894 0.819491,-0.0836 1.058333,0.0131 0.238842,0.0966 -0.04199,0.16982 -0.624075,0.16263 -0.582083,-0.007 -0.7775,-0.0863 -0.434258,-0.1757 z m 3.366723,0.003 c 0.254661,-0.10191 0.558932,-0.0894 0.676157,0.0279 0.117225,0.11722 -0.09113,0.2006 -0.463021,0.18528 -0.410965,-0.0169 -0.494558,-0.10052 -0.213136,-0.21313 z m 4.586111,0 c 0.254661,-0.10191 0.558932,-0.0894 0.676157,0.0279 0.117225,0.11722 -0.09113,0.2006 -0.463021,0.18528 -0.410966,-0.0169 -0.494559,-0.10052 -0.213136,-0.21313 z m 9.524999,0 c 0.254661,-0.10191 0.558932,-0.0894 0.676157,0.0279 0.117225,0.11722 -0.09113,0.2006 -0.463021,0.18528 -0.410965,-0.0169 -0.494558,-0.10052 -0.213136,-0.21313 z m 13.73628,0.007 c 0.24254,-0.0979 0.63941,-0.0979 0.88195,0 0.24253,0.0979 0.0441,0.17793 -0.44097,0.17793 -0.48507,0 -0.68351,-0.0801 -0.44098,-0.17793 z m 12.70412,-0.0159 c 0.43882,-0.0844 1.07382,-0.0812 1.41111,0.007 0.33728,0.0883 -0.0218,0.15733 -0.79787,0.15342 -0.77611,-0.004 -1.05207,-0.0762 -0.61324,-0.16054 z m 3.34727,0.006 c 0.33955,-0.0887 0.89517,-0.0887 1.23472,0 0.33955,0.0887 0.0617,0.16133 -0.61736,0.16133 -0.67909,0 -0.95691,-0.0726 -0.61736,-0.16133 z m 14.66233,0.002 c 0.25466,-0.10191 0.55893,-0.0894 0.67615,0.0279 0.11723,0.11722 -0.0911,0.2006 -0.46302,0.18528 -0.41096,-0.0169 -0.49456,-0.10052 -0.21313,-0.21313 z m 1.38906,0.007 c 0.24253,-0.0979 0.63941,-0.0979 0.88194,0 0.24254,0.0979 0.0441,0.17793 -0.44097,0.17793 -0.48507,0 -0.68351,-0.0801 -0.44097,-0.17793 z m 13.4276,-0.007 c 0.25466,-0.10191 0.55893,-0.0894 0.67616,0.0279 0.11722,0.11722 -0.0911,0.2006 -0.46302,0.18528 -0.41097,-0.0169 -0.49456,-0.10052 -0.21314,-0.21313 z m 3.50573,0.007 c 0.24254,-0.0979 0.63941,-0.0979 0.88195,0 0.24253,0.0979 0.0441,0.17793 -0.44098,0.17793 -0.48507,0 -0.6835,-0.0801 -0.44097,-0.17793 z m 3.175,0 c 0.24254,-0.0979 0.63941,-0.0979 0.88194,0 0.24254,0.0979 0.0441,0.17793 -0.44097,0.17793 -0.48507,0 -0.6835,-0.0801 -0.44097,-0.17793 z m 8.13594,-0.007 c 0.25466,-0.10191 0.55893,-0.0894 0.67615,0.0279 0.11723,0.11722 -0.0911,0.2006 -0.46302,0.18528 -0.41096,-0.0169 -0.49456,-0.10052 -0.21313,-0.21313 z m 17.61684,0.007 c 0.24253,-0.0979 0.63941,-0.0979 0.88194,0 0.24254,0.0979 0.0441,0.17793 -0.44097,0.17793 -0.48507,0 -0.68351,-0.0801 -0.44097,-0.17793 z M 5.8193123,266.58765 c 0.016928,-0.41097 0.1005206,-0.49456 0.2131365,-0.21314 0.1019072,0.25466 0.089374,0.55894 -0.027851,0.67616 -0.1172251,0.11723 -0.2006037,-0.0911 -0.1852855,-0.46302 z M 155.722,263.97121 c 0,-0.19402 0.16812,-0.35277 0.3736,-0.35277 0.20548,0 0.27549,0.15875 0.15557,0.35277 -0.11991,0.19403 -0.28803,0.35278 -0.3736,0.35278 -0.0856,0 -0.15557,-0.15875 -0.15557,-0.35278 z M 43.825313,263.73023 c 0.254661,-0.10191 0.558932,-0.0894 0.676157,0.0279 0.117225,0.11722 -0.09113,0.2006 -0.463021,0.18528 -0.410966,-0.0169 -0.494559,-0.10052 -0.213136,-0.21313 z m -32.294499,-0.70904 c 0.343241,-0.0894 0.819491,-0.0836 1.058333,0.0131 0.238842,0.0966 -0.04199,0.16981 -0.624075,0.16263 -0.582083,-0.007 -0.777499,-0.0863 -0.434258,-0.1757 z m 2.639119,-0.0107 c 0.63059,-0.0783 1.662465,-0.0783 2.293055,0 0.630591,0.0783 0.114653,0.14228 -1.146527,0.14228 -1.261181,0 -1.777118,-0.064 -1.146528,-0.14228 z m 4.578242,5.9e-4 c 0.626263,-0.0779 1.737513,-0.0792 2.469444,-0.003 0.731932,0.0764 0.219536,0.14013 -1.138659,0.1417 -1.358194,0.002 -1.957047,-0.0609 -1.330785,-0.13885 z m 4.26325,0.0136 c 0.254662,-0.10191 0.558933,-0.0894 0.676158,0.0279 0.117225,0.11723 -0.09114,0.20061 -0.463021,0.18529 -0.410966,-0.0169 -0.494559,-0.10052 -0.213137,-0.21314 z m 3.32934,-0.016 c 0.727604,-0.0761 1.918229,-0.0761 2.645833,0 0.727605,0.0761 0.132292,0.13838 -1.322916,0.13838 -1.455208,0 -2.050521,-0.0623 -1.322917,-0.13838 z m 4.431771,0.016 c 0.254661,-0.10191 0.558932,-0.0894 0.676157,0.0279 0.117225,0.11723 -0.09113,0.20061 -0.463021,0.18529 -0.410966,-0.0169 -0.494559,-0.10052 -0.213136,-0.21314 z m 4.225109,-0.0206 c 1.220277,-0.0691 3.125277,-0.0685 4.233333,0.001 1.108056,0.0698 0.109647,0.12631 -2.218686,0.12561 -2.328333,-7e-4 -3.234924,-0.0578 -2.014647,-0.12688 z m 7.394508,0.0279 c 0.242535,-0.0979 0.63941,-0.0979 0.881944,0 0.242535,0.0979 0.0441,0.17794 -0.440972,0.17794 -0.485069,0 -0.683507,-0.0801 -0.440972,-0.17794 z m 1.785937,-0.007 c 0.254662,-0.10191 0.558933,-0.0894 0.676158,0.0279 0.117225,0.11723 -0.09114,0.20061 -0.463021,0.18529 -0.410966,-0.0169 -0.494559,-0.10052 -0.213137,-0.21314 z m 2.277721,-0.003 c 0.343241,-0.0894 0.819491,-0.0836 1.058333,0.0131 0.238842,0.0966 -0.04199,0.16981 -0.624075,0.16263 -0.582083,-0.007 -0.777499,-0.0863 -0.434258,-0.1757 z m 4.05023,-0.0138 c 0.824618,-0.0743 2.173993,-0.0743 2.998611,0 0.824618,0.0743 0.149931,0.13504 -1.499305,0.13504 -1.649236,0 -2.323924,-0.0608 -1.499306,-0.13504 z m 6.01927,0.0173 c 0.254662,-0.10191 0.558933,-0.0894 0.676158,0.0279 0.117225,0.11723 -0.09113,0.20061 -0.463021,0.18529 -0.410966,-0.0169 -0.494559,-0.10052 -0.213137,-0.21314 z m 1.389063,0.007 c 0.242535,-0.0979 0.63941,-0.0979 0.881944,0 0.242535,0.0979 0.0441,0.17794 -0.440972,0.17794 -0.485069,0 -0.683507,-0.0801 -0.440972,-0.17794 z m 2.652547,-0.0108 c 0.343241,-0.0894 0.819491,-0.0836 1.058333,0.0131 0.238842,0.0966 -0.04199,0.16981 -0.624075,0.16263 -0.582083,-0.007 -0.777499,-0.0863 -0.434258,-0.1757 z m 1.955612,0.003 c 0.254662,-0.10191 0.558932,-0.0894 0.676158,0.0279 0.117225,0.11723 -0.09113,0.20061 -0.463021,0.18529 -0.410966,-0.0169 -0.494559,-0.10052 -0.213137,-0.21314 z m 1.92308,-0.0122 c 0.536244,-0.0811 1.329994,-0.0789 1.763889,0.005 0.433894,0.0837 -0.0049,0.15008 -0.97499,0.14743 -0.970139,-0.003 -1.325143,-0.0712 -0.788899,-0.15225 z m 6.874315,-0.005 c 0.824618,-0.0743 2.173993,-0.0743 2.998611,0 0.824618,0.0743 0.149931,0.13504 -1.499305,0.13504 -1.649236,0 -2.323924,-0.0608 -1.499306,-0.13504 z m 6.019271,0.0173 c 0.254661,-0.10191 0.558932,-0.0894 0.676157,0.0279 0.117225,0.11723 -0.09113,0.20061 -0.463021,0.18529 -0.410966,-0.0169 -0.494559,-0.10052 -0.213136,-0.21314 z m 5.975173,-0.008 c 0.436562,-0.0841 1.150937,-0.0841 1.5875,0 0.436562,0.0841 0.07937,0.15289 -0.79375,0.15289 -0.873125,0 -1.230313,-0.0688 -0.79375,-0.15289 z m 3.880555,-0.009 c 0.824618,-0.0743 2.173993,-0.0743 2.998611,0 0.824618,0.0743 0.14993,0.13504 -1.499306,0.13504 -1.649235,0 -2.323923,-0.0608 -1.499305,-0.13504 z m 7.06938,-0.003 c 1.220277,-0.0691 3.125276,-0.0685 4.233333,0.001 1.108056,0.0698 0.109647,0.12631 -2.218686,0.12561 -2.328333,-7e-4 -3.234924,-0.0578 -2.014647,-0.12688 z m 8.635943,0.0171 c 0.34324,-0.0894 0.81949,-0.0836 1.05833,0.0131 0.23885,0.0966 -0.042,0.16981 -0.62407,0.16263 -0.58208,-0.007 -0.7775,-0.0863 -0.43426,-0.1757 z m 2.63125,-0.0101 c 0.62626,-0.0779 1.73751,-0.0792 2.46945,-0.003 0.73193,0.0764 0.21953,0.14013 -1.13866,0.1417 -1.3582,0.002 -1.95705,-0.0609 -1.33079,-0.13885 z m 9.02479,-0.009 c 2.67949,-0.06 6.96574,-0.0598 9.525,3.4e-4 2.55927,0.0602 0.36697,0.10929 -4.87178,0.1091 -5.23875,-1.9e-4 -7.3327,-0.0494 -4.65322,-0.10944 z m 14.61919,0.0302 c 0.24253,-0.0979 0.63941,-0.0979 0.88194,0 0.24254,0.0979 0.0441,0.17794 -0.44097,0.17794 -0.48507,0 -0.68351,-0.0801 -0.44097,-0.17794 z m 3.175,0 c 0.24253,-0.0979 0.63941,-0.0979 0.88194,0 0.24254,0.0979 0.0441,0.17794 -0.44097,0.17794 -0.48507,0 -0.68351,-0.0801 -0.44097,-0.17794 z m 2.64583,-0.019 c 0.53358,-0.0808 1.4067,-0.0808 1.94028,0 0.53358,0.0808 0.097,0.14696 -0.97014,0.14696 -1.06715,0 -1.50371,-0.0661 -0.97014,-0.14696 z m 3.70417,0.004 c 0.43656,-0.0841 1.15094,-0.0841 1.5875,0 0.43656,0.0841 0.0794,0.15289 -0.79375,0.15289 -0.87313,0 -1.23031,-0.0688 -0.79375,-0.15289 z m 3.17911,-5.4e-4 c 0.43883,-0.0844 1.07383,-0.0812 1.41111,0.007 0.33729,0.0883 -0.0217,0.15734 -0.79786,0.15342 -0.77611,-0.004 -1.05207,-0.0761 -0.61325,-0.16054 z m 3.34728,0.006 c 0.33955,-0.0887 0.89517,-0.0887 1.23472,0 0.33955,0.0887 0.0617,0.16133 -0.61736,0.16133 -0.6791,0 -0.95691,-0.0726 -0.61736,-0.16133 z m 2.3151,0.002 c 0.25466,-0.10191 0.55893,-0.0894 0.67616,0.0279 0.11722,0.11723 -0.0911,0.20061 -0.46302,0.18529 -0.41097,-0.0169 -0.49456,-0.10052 -0.21314,-0.21314 z m 2.09873,-0.009 c 0.43883,-0.0844 1.07383,-0.0812 1.41111,0.007 0.33729,0.0883 -0.0217,0.15734 -0.79786,0.15342 -0.77611,-0.004 -1.05207,-0.0761 -0.61325,-0.16054 z m 2.99935,-0.004 c 0.53624,-0.0811 1.32999,-0.0789 1.76389,0.005 0.43389,0.0837 -0.005,0.15008 -0.97499,0.14743 -0.97014,-0.003 -1.32514,-0.0712 -0.7889,-0.15225 z m 4.58126,0.01 c 0.33955,-0.0887 0.89517,-0.0887 1.23472,0 0.33955,0.0887 0.0617,0.16133 -0.61736,0.16133 -0.6791,0 -0.95691,-0.0726 -0.61736,-0.16133 z m 2.29306,0.01 c 0.24253,-0.0979 0.63941,-0.0979 0.88194,0 0.24253,0.0979 0.0441,0.17794 -0.44097,0.17794 -0.48507,0 -0.68351,-0.0801 -0.44097,-0.17794 z m 2.81435,-0.021 c 0.62626,-0.0779 1.73751,-0.0792 2.46944,-0.003 0.73194,0.0764 0.21954,0.14013 -1.13866,0.1417 -1.35819,0.002 -1.95704,-0.0609 -1.33078,-0.13885 z m 6.18148,0.002 c 0.53357,-0.0808 1.4067,-0.0808 1.94028,0 0.53357,0.0808 0.097,0.14696 -0.97014,0.14696 -1.06716,0 -1.50372,-0.0661 -0.97014,-0.14696 z m 5.11939,0.003 c 0.43882,-0.0844 1.07382,-0.0812 1.41111,0.007 0.33729,0.0883 -0.0217,0.15734 -0.79786,0.15342 -0.77611,-0.004 -1.05208,-0.0761 -0.61325,-0.16054 z M 51.917152,245.39313 c 0.242535,-0.0979 0.63941,-0.0979 0.881945,0 0.242534,0.0979 0.0441,0.17794 -0.440973,0.17794 -0.485069,0 -0.683507,-0.0801 -0.440972,-0.17794 z m 44.472045,-0.007 c 0.254662,-0.1019 0.558932,-0.0894 0.676158,0.0279 0.117225,0.11722 -0.09113,0.2006 -0.463021,0.18528 -0.410966,-0.0169 -0.494559,-0.10052 -0.213137,-0.21314 z m 56.422393,-5.98987 c 0.24253,-0.0979 0.63941,-0.0979 0.88194,0 0.24254,0.0979 0.0441,0.17794 -0.44097,0.17794 -0.48507,0 -0.68351,-0.0801 -0.44097,-0.17794 z m -122.344677,-2.50039 -1.215731,-1.32291 1.322916,1.21573 c 0.727604,0.66865 1.322917,1.26396 1.322917,1.32291 0,0.26939 -0.298526,0.0156 -1.430102,-1.21573 z m 127.305617,-6.67918 c 0.25466,-0.10191 0.55893,-0.0894 0.67615,0.0279 0.11723,0.11723 -0.0911,0.20061 -0.46302,0.18529 -0.41096,-0.0169 -0.49456,-0.10052 -0.21313,-0.21314 z m 1.91822,-0.002 c 0.33955,-0.0887 0.89518,-0.0887 1.23473,0 0.33955,0.0887 0.0617,0.16133 -0.61736,0.16133 -0.6791,0 -0.95691,-0.0726 -0.61737,-0.16133 z m -0.15434,-16.22559 c 0.25467,-0.1019 0.55894,-0.0894 0.67616,0.0279 0.11723,0.11722 -0.0911,0.2006 -0.46302,0.18528 -0.41097,-0.0169 -0.49456,-0.10052 -0.21314,-0.21314 z m -88.899989,-1.76388 c 0.254662,-0.10191 0.558933,-0.0894 0.676158,0.0279 0.117225,0.11722 -0.09113,0.2006 -0.463021,0.18528 -0.410966,-0.0169 -0.494559,-0.10052 -0.213137,-0.21313 z m 1.411111,-0.35278 c 0.254662,-0.10191 0.558933,-0.0894 0.676158,0.0279 0.117225,0.11722 -0.09113,0.2006 -0.463021,0.18528 -0.410966,-0.0169 -0.494559,-0.10052 -0.213137,-0.21313 z m -38.739406,-4.47832 c 0,-0.0732 0.277812,-0.35107 0.617361,-0.61736 0.559525,-0.43881 0.572003,-0.42633 0.133193,0.13319 -0.460858,0.58764 -0.750554,0.77452 -0.750554,0.48417 z m 61.736106,-19.05 c 0,-0.0733 0.277812,-0.35107 0.617361,-0.61736 0.559525,-0.43881 0.572003,-0.42633 0.133193,0.1332 -0.460858,0.58763 -0.750554,0.77451 -0.750554,0.48416 z m -53.07037,-5.96743 c 0.132479,-0.34792 0.329738,-0.54371 0.438354,-0.4351 0.108616,0.10862 2.24e-4,0.39328 -0.240871,0.63258 -0.348409,0.34581 -0.38893,0.30529 -0.197483,-0.19748 z m 34.211826,-42.9111 c -0.11163,-0.18063 -0.06808,-0.41177 0.09677,-0.51365 0.164854,-0.10189 0.299735,0.0459 0.299735,0.3284 0,0.59484 -0.111243,0.64681 -0.396508,0.18525 z M 100.2477,125.4487 c 0.24254,-0.0979 0.63941,-0.0979 0.88195,0 0.24253,0.0979 0.0441,0.17794 -0.44097,0.17794 -0.48507,0 -0.68351,-0.0801 -0.44098,-0.17794 z m -11.641662,-1.41111 c 0.242535,-0.0979 0.63941,-0.0979 0.881944,0 0.242535,0.0979 0.0441,0.17793 -0.440972,0.17793 -0.485069,0 -0.683507,-0.0801 -0.440972,-0.17793 z m 51.810032,-9.00314 c 0.10188,-0.16485 0.33302,-0.2084 0.51365,-0.0968 0.46156,0.28527 0.40959,0.39651 -0.18525,0.39651 -0.28251,0 -0.43029,-0.13488 -0.3284,-0.29974 z m 2.95871,-2.2285 c 0.4557,-0.48507 0.90792,-0.88195 1.00494,-0.88195 0.097,0 -0.19646,0.39688 -0.65216,0.88195 -0.4557,0.48507 -0.90792,0.88194 -1.00493,0.88194 -0.097,0 0.19645,-0.39687 0.65215,-0.88194 z m -9.31406,-21.992712 c -0.10091,-0.163284 0.40227,-0.837971 1.11819,-1.499305 0.71592,-0.661335 1.02689,-0.872044 0.69106,-0.468243 -0.33584,0.403802 -0.53089,0.840364 -0.43346,0.970139 0.0974,0.129775 0.0727,0.157957 -0.055,0.06263 -0.34246,-0.255718 -1.20369,0.553513 -0.97789,0.918856 0.10632,0.172043 0.11394,0.312805 0.0169,0.312805 -0.097,0 -0.25895,-0.133595 -0.35987,-0.296879 z m 30.76736,-20.757995 c 0.25466,-0.101907 0.55893,-0.08937 0.67616,0.02785 0.11722,0.117225 -0.0911,0.200603 -0.46302,0.185285 -0.41097,-0.01693 -0.49456,-0.10052 -0.21314,-0.213136 z"
         id="path3" /><path
         style="fill:#dc2626;fill-opacity:1"
         d="m 7.6413004,270.49761 c 0.2955844,-0.32619 -1.1430308,-1.46335 -1.6449713,-1.30028 -0.1783644,0.058 -0.1192388,-0.14172 0.1313902,-0.44371 0.2738758,-0.33 0.3077446,-0.54907 0.084887,-0.54907 -0.3173536,0 -0.3172399,-1.25082 3.393e-4,-3.73357 0.068674,-0.53688 -0.1543063,-0.52128 9.9171324,-0.69365 7.204851,-0.12331 9.04883,-0.0641 8.83992,0.28362 -0.204244,0.34 -0.14887,0.34679 0.244715,0.03 0.751245,-0.60464 13.735866,-0.63406 13.743259,-0.0311 0.0039,0.3194 0.07668,0.32941 0.264583,0.0364 0.385058,-0.60042 69.001655,-0.62133 68.641335,-0.0209 -0.18666,0.31103 -0.10914,0.30693 0.28896,-0.0153 0.70567,-0.57112 47.56915,-0.58018 47.56915,-0.009 0,0.23068 0.16677,0.22111 0.46536,-0.0267 0.32023,-0.26577 4.77908,-0.38225 14.2983,-0.37352 l 13.83295,0.0127 1.0597,1.03588 c 0.58282,0.56974 0.88757,1.03588 0.67721,1.03588 -0.2511,0 -0.27112,0.19896 -0.0583,0.57928 0.1783,0.3186 0.24466,0.91391 0.14746,1.32291 -0.23965,1.00849 -1.75907,2.42756 -2.26465,2.11509 -0.27914,-0.17252 -0.3311,-0.0508 -0.16408,0.38447 0.1823,0.47507 0.1303,0.55398 -0.20463,0.31053 -0.27213,-0.19781 -28.24711,-0.30828 -71.0046,-0.2804 -50.701505,0.0331 -70.698693,-0.0629 -71.06424,-0.34085 -0.337434,-0.25662 -0.433227,-0.26061 -0.284537,-0.0119 0.155141,0.25954 -1.263129,0.34124 -4.606587,0.26537 -2.656907,-0.0603 -4.98949,-0.10819 -5.183518,-0.10643 -13.964455,0.12654 -23.1695217,0.34087 -23.5279936,0.54782 -0.2534914,0.14634 -0.3428409,0.13581 -0.1985544,-0.0234 z M 58.934032,246.60498 c 0.190274,-0.30787 -0.24397,-0.37212 -1.901603,-0.28137 -0.63059,0.0345 -1.146527,-0.093 -1.146527,-0.28346 0,-0.20031 -0.594762,-0.26647 -1.411111,-0.15697 -0.874425,0.11728 -1.411111,0.0477 -1.411111,-0.18302 0,-0.20476 -0.674688,-0.37855 -1.499306,-0.3862 -2.278127,-0.0211 -2.72042,-0.0742 -5.291666,-0.63527 -1.309687,-0.28577 -2.38125,-0.64009 -2.38125,-0.78737 0,-0.14728 -0.515937,-0.23577 -1.146527,-0.19663 -0.675258,0.0419 -1.492348,-0.19892 -1.987853,-0.58588 -0.462729,-0.36137 -1.058041,-0.65704 -1.322917,-0.65704 -0.264875,0 -0.481591,-0.17726 -0.481591,-0.39392 0,-0.22033 -0.311136,-0.31256 -0.706042,-0.20929 -0.449153,0.11746 -0.620631,0.0464 -0.471296,-0.19519 0.149907,-0.24256 0.01596,-0.29588 -0.370613,-0.14753 -0.407958,0.15654 -0.522996,0.099 -0.352778,-0.17639 0.170218,-0.27542 0.05518,-0.33294 -0.352778,-0.17639 -0.332948,0.12776 -0.517706,0.0905 -0.410574,-0.0829 0.222632,-0.36023 -2.973068,-2.35912 -3.50953,-2.1952 -0.194028,0.0593 -0.251336,0.006 -0.127351,-0.11763 0.123985,-0.12398 -0.90789,-1.29811 -2.293055,-2.60917 -1.385165,-1.31107 -2.579664,-2.53254 -2.654441,-2.71439 -0.682168,-1.65896 -1.273269,-2.55748 -1.564182,-2.37769 -0.192033,0.11868 -0.246326,0.0494 -0.120651,-0.15393 0.125675,-0.20335 -0.02075,-1.06132 -0.325383,-1.90659 -0.600852,-1.6672 -0.606908,-8.38683 -0.0079,-8.82099 0.403386,-0.2924 1.246741,-2.72783 1.126451,-3.25294 -0.05028,-0.21948 -0.02483,-0.27999 0.05656,-0.13447 0.27658,0.49456 0.643305,0.26702 0.710733,-0.44097 0.146185,-1.53494 0.213211,-1.76389 0.516389,-1.76389 0.173141,0 0.226969,-0.14212 0.119619,-0.31581 -0.107351,-0.1737 0.04112,-0.40649 0.329938,-0.51732 0.655945,-0.25171 1.968444,-2.36366 1.719377,-2.76666 -0.10138,-0.16403 -0.05346,-0.25804 0.106478,-0.2089 0.372497,0.11445 4.442573,-4.16604 4.287672,-4.50933 -0.06397,-0.14178 0.169392,-0.29971 0.518586,-0.35096 0.805115,-0.11816 1.70308,-0.85071 1.481768,-1.2088 -0.216201,-0.34982 0.69909,-1.12359 0.987699,-0.83498 0.28462,0.28462 2.569197,-1.65127 2.443144,-2.07026 -0.05331,-0.17721 0.03661,-0.23967 0.199829,-0.13879 0.345998,0.21384 3.339236,-1.68652 3.074075,-1.95168 -0.0981,-0.0981 0.05977,-0.20482 0.350808,-0.23716 0.291042,-0.0323 0.760309,-0.0853 1.042815,-0.11759 0.282507,-0.0323 0.438668,-0.18012 0.347024,-0.3284 -0.09164,-0.14828 -0.0053,-0.36932 0.191907,-0.49119 0.197193,-0.12187 0.358532,-0.061 0.358532,0.13517 0,0.19621 0.414575,-0.0275 0.921277,-0.49706 0.506702,-0.4696 1.223382,-0.9497 1.592622,-1.06689 0.36924,-0.11719 0.581421,-0.35858 0.471512,-0.53641 -0.110147,-0.17823 0.07185,-0.21908 0.405527,-0.091 0.363161,0.13936 0.518181,0.0912 0.387462,-0.12027 -0.123395,-0.19966 0.119258,-0.32535 0.559489,-0.2898 0.427564,0.0345 0.856763,-0.0322 0.953777,-0.14836 0.282698,-0.33836 1.470731,-1.01726 3.118029,-1.78179 1.395789,-0.6478 1.481393,-0.75947 0.972383,-1.26848 -0.68989,-0.68989 -2.508528,-1.09213 -2.123877,-0.46975 0.164499,0.26616 0.108294,0.32607 -0.153893,0.16403 -0.227172,-0.1404 -0.321706,-0.40305 -0.210076,-0.58367 0.111629,-0.18062 -0.08422,-0.33345 -0.435218,-0.33962 -0.351,-0.006 -0.939381,-0.23921 -1.307514,-0.51787 -0.368133,-0.27866 -0.829224,-0.40783 -1.024646,-0.28705 -0.217864,0.13465 -0.243606,0.0388 -0.06655,-0.24764 0.211426,-0.34209 0.126631,-0.40502 -0.316593,-0.23494 -0.332948,0.12777 -0.519488,0.0934 -0.414533,-0.0765 0.104955,-0.16982 -0.04555,-0.50494 -0.334455,-0.74471 -0.751873,-0.624 -0.652371,-0.94673 0.37109,-1.2036 0.542223,-0.13609 0.799447,-0.3818 0.651048,-0.62192 -0.144342,-0.23355 -0.08737,-0.29932 0.138415,-0.15978 0.211056,0.13044 1.436821,-0.36097 2.723922,-1.09202 1.2871,-0.73105 2.686759,-1.52236 3.110351,-1.75846 0.423593,-0.2361 0.770168,-0.61785 0.770168,-0.84832 0,-0.23046 0.285705,-0.46096 0.634899,-0.51221 0.843517,-0.12381 1.658157,-0.82556 1.658157,-1.42839 0,-0.63037 -0.226297,-0.61557 -2.790792,0.18259 -1.181453,0.36771 -2.148097,0.60025 -2.148097,0.51676 0,-0.0835 -0.297718,0.008 -0.661597,0.20227 -1.835269,0.9822 -8.983115,0.78688 -10.152803,-0.27744 -0.357982,-0.32574 -1.003914,-0.5719 -1.435404,-0.54703 -0.43149,0.0249 -0.706998,-0.0802 -0.612239,-0.23355 0.09476,-0.15332 -0.147516,-0.38027 -0.538389,-0.50433 -0.390873,-0.12406 -0.710678,-0.37361 -0.710678,-0.55457 0,-0.18095 -0.218687,-0.329 -0.485971,-0.329 -0.267283,0 -0.682146,-0.23638 -0.921916,-0.52528 -0.23977,-0.28891 -0.552415,-0.4533 -0.694768,-0.36533 -0.142352,0.088 -0.70969,-0.31064 -1.260751,-0.88582 -0.551061,-0.57519 -0.85859,-1.04579 -0.683396,-1.04579 0.175194,0 -0.536504,-0.8658 -1.58155,-1.92399 -1.045046,-1.05819 -2.056339,-1.82741 -2.247317,-1.70938 -0.190978,0.11803 -0.255746,0.0666 -0.143929,-0.11435 0.111818,-0.18093 -0.115555,-0.72139 -0.505272,-1.20104 -0.389717,-0.47964 -0.589975,-0.63395 -0.445016,-0.34291 0.144959,0.29104 0.127681,0.40551 -0.03839,0.25437 -0.599453,-0.54553 -0.457594,-1.26081 0.224019,-1.12954 0.368705,0.071 0.672804,-0.0602 0.675775,-0.29161 0.0033,-0.25358 0.141258,-0.2105 0.347376,0.10845 0.204223,0.31601 0.34415,0.36037 0.347376,0.11012 0.003,-0.23048 0.283214,-0.41748 0.622763,-0.41556 0.580778,0.003 2.028472,-0.28227 2.028472,-0.40012 0,-0.0297 0.305611,-0.11124 0.679137,-0.18123 0.373525,-0.07 0.809713,-0.36058 0.969307,-0.64576 0.180186,-0.32197 0.578823,-0.44302 1.051722,-0.31935 0.588265,0.15383 0.693454,0.0862 0.462279,-0.29739 -0.254996,-0.42309 -0.210966,-0.42492 0.297614,-0.0124 0.377863,0.30651 0.596885,0.34134 0.596885,0.0949 0,-0.21409 0.395778,-0.48859 0.879506,-0.61 0.488895,-0.1227 0.778042,-0.38491 0.651049,-0.59039 -0.13176,-0.21319 -0.05915,-0.26502 0.171536,-0.12245 0.472298,0.2919 1.922533,-0.40164 1.67554,-0.80129 -0.09345,-0.1512 0.176075,-0.24942 0.598942,-0.21827 0.422868,0.0311 1.167945,-0.31342 1.655728,-0.76572 0.487783,-0.45229 1.016931,-0.82236 1.175886,-0.82236 0.158954,0 0.192019,-0.15693 0.07348,-0.34873 -0.128023,-0.20715 0.03025,-0.25442 0.38983,-0.11644 0.443223,0.17008 0.528018,0.10716 0.316593,-0.23494 -0.187794,-0.30385 -0.152108,-0.38277 0.102053,-0.22569 0.408572,0.25251 1.897843,-0.80355 1.664839,-1.18056 -0.07363,-0.11914 0.149693,-0.23798 0.496279,-0.26408 0.747349,-0.0563 3.912212,-2.84849 3.805005,-3.35696 -0.04087,-0.19387 0.203587,-0.39922 0.54325,-0.45635 0.622539,-0.10471 3.012416,-1.93013 2.526962,-1.93013 -0.143545,0 0.562713,-0.80234 1.569463,-1.78297 1.00675,-0.98063 1.750759,-1.91191 1.653355,-2.06952 -0.09741,-0.1576 0.176344,-0.58558 0.608331,-0.95106 0.778609,-0.65874 0.780834,-0.65821 0.256264,0.0606 -0.291042,0.39881 -0.0926,0.27725 0.440972,-0.27015 0.533577,-0.5474 0.970732,-0.8737 0.971458,-0.72512 7.25e-4,0.14858 0.315892,-0.24579 0.70037,-0.87638 0.384478,-0.63059 0.877119,-1.14652 1.094758,-1.14652 0.217638,0 0.30506,-0.23622 0.19427,-0.52494 -0.11079,-0.28871 -0.07259,-0.48715 0.08488,-0.44097 0.157475,0.0462 1.143949,-0.94109 2.192165,-2.19394 1.048216,-1.25284 1.667722,-2.15388 1.37668,-2.00231 -0.291042,0.15158 -0.211667,0.0189 0.176389,-0.29492 0.388055,-0.31379 0.705555,-0.7092 0.705555,-0.87871 0,-0.16951 0.144515,-0.44049 0.321143,-0.60218 0.188818,-0.17284 0.214083,-0.0759 0.06132,0.23519 -0.2839,0.5782 0.631277,-0.42127 2.37861,-2.59768 0.615717,-0.76691 1.53089,-1.87165 2.033718,-2.45498 l 0.914233,-1.06059 1.512767,1.55732 c 0.832022,0.85653 1.769992,1.56473 2.084378,1.57379 0.314386,0.009 0.534336,0.20027 0.488777,0.4249 -0.100187,0.49397 4.043543,4.18506 4.544196,4.0478 0.19447,-0.0533 0.266751,0.0436 0.160624,0.21528 -0.193783,0.31355 3.092281,3.647 3.519549,3.5703 0.125457,-0.0225 0.632477,0.52739 1.126711,1.22201 0.494233,0.69463 1.061702,1.26296 1.261042,1.26296 0.19934,0 -0.103826,-0.51594 -0.673703,-1.14653 l -1.036141,-1.14653 1.133984,1.02413 c 0.623691,0.56326 1.059273,1.145 0.967959,1.29275 -0.228375,0.36952 3.754992,3.87606 4.135787,3.64072 0.168377,-0.10407 0.262519,0.021 0.209205,0.27799 -0.05331,0.25695 0.113302,0.42357 0.370259,0.37026 0.256956,-0.0533 0.376534,0.0497 0.265728,0.22904 -0.110806,0.17929 0.393331,0.84231 1.120306,1.47338 0.726974,0.63107 3.524393,3.22675 6.216487,5.76818 2.6921,2.54142 5.10681,4.59976 5.36603,4.57408 0.25922,-0.0257 0.43785,0.087 0.39695,0.25031 -0.0904,0.36123 2.53866,3.14777 2.96993,3.14777 0.83697,0 0.0653,1.40758 -2.25054,4.10501 -1.4067,1.6385 -2.51402,3.14322 -2.4607,3.34382 0.0533,0.2006 -0.0578,0.26911 -0.24689,0.15224 -0.35339,-0.21841 -1.192,0.99356 -0.89381,1.29175 0.0914,0.0914 -0.19202,0.46944 -0.62977,0.84013 -0.79205,0.67073 -0.79335,0.67045 -0.26675,-0.0569 0.29104,-0.402 -0.0642,-0.10593 -0.78949,0.65793 -0.72526,0.76386 -1.23861,1.51836 -1.14077,1.67666 0.0978,0.15831 -0.008,0.4027 -0.23516,0.5431 -0.25796,0.15943 -0.31853,0.10236 -0.16132,-0.15201 0.13844,-0.22401 0.0836,-0.40728 -0.12188,-0.40728 -0.20548,0 -0.373602,0.16049 -0.373602,0.35664 0,0.19616 -1.230312,1.6444 -2.734027,3.21832 -1.503715,1.57392 -2.69434,2.92156 -2.645833,2.99474 0.04851,0.0732 0.01345,0.0934 -0.07791,0.0449 -0.09136,-0.0485 -1.171691,0.90845 -2.400739,2.12657 -1.229048,1.21813 -2.339947,2.10946 -2.468664,1.98074 -0.128717,-0.12871 -0.169375,0.10171 -0.09035,0.51205 0.07902,0.41034 0.0301,0.70963 -0.10872,0.66509 -0.385789,-0.12377 -4.630445,3.7112 -4.443126,4.01429 0.1827,0.29561 -0.474151,0.78516 -1.201153,0.89522 -0.650739,0.0985 -1.809398,1.18996 -1.718945,1.61924 0.04081,0.19366 -0.211511,0.39999 -0.560705,0.45852 -0.91853,0.15395 -1.687421,0.88437 -1.421325,1.35019 0.125985,0.22056 0.09854,0.2827 -0.06099,0.13811 -0.159531,-0.14459 -0.80939,0.13322 -1.444132,0.61736 -0.634741,0.48414 -1.323418,0.88026 -1.530391,0.88026 -0.206974,0 -0.376316,0.14977 -0.376316,0.33283 0,0.18306 -0.467617,0.60906 -1.039148,0.94667 -0.571532,0.33762 -0.959038,0.74347 -0.861125,0.90189 0.09791,0.15843 -0.109157,0.2931 -0.460157,0.29927 -0.814685,0.0143 -1.943374,0.85905 -1.602836,1.19959 0.142505,0.1425 0.10035,0.20812 -0.09368,0.14582 -0.569278,-0.1828 -2.655551,0.81169 -2.438739,1.1625 0.10897,0.17632 0.06727,0.29784 -0.09268,0.27006 -0.751582,-0.13056 -1.191219,0.0705 -0.962673,0.44032 0.149211,0.24143 0.09744,0.31194 -0.127128,0.17314 -0.208365,-0.12877 -0.635247,0.0223 -0.948629,0.33565 -1.168755,1.16876 0.960227,2.09892 5.275402,2.30485 0.776111,0.037 1.640022,0.24029 1.919802,0.45168 0.369365,0.27907 0.444578,0.27723 0.274608,-0.007 -0.157868,-0.26374 0.271286,-0.38301 1.318084,-0.36633 0.876591,0.014 1.462686,0.16951 1.34658,0.35737 -0.113074,0.18296 -0.02245,0.21947 0.201393,0.0811 0.223839,-0.13834 8.266028,-0.25613 17.87153,-0.26175 13.164844,-0.008 17.407954,-0.1112 17.234664,-0.42034 -0.14683,-0.26193 -0.0582,-0.25078 0.24519,0.0309 0.2613,0.24253 0.88784,0.44097 1.39231,0.44097 0.50448,0 1.13102,-0.19844 1.39231,-0.44097 0.29938,-0.27788 0.39041,-0.28986 0.24614,-0.0324 -0.17197,0.30691 3.48976,0.40363 14.71398,0.38868 8.21861,-0.011 15.162,0.11548 15.42975,0.28096 0.26776,0.16548 0.96536,0.26152 1.55024,0.21342 0.96223,-0.0791 4.42458,0.34359 6.44327,0.78668 0.47545,0.10436 0.79592,0.006 0.79916,-0.2465 0.004,-0.28008 0.10748,-0.25958 0.31078,0.0613 0.20233,0.31939 0.78566,0.43623 1.72881,0.34628 0.78289,-0.0747 1.34804,-0.0138 1.2559,0.13533 -0.0921,0.1491 0.31808,0.29092 0.91162,0.31518 0.59353,0.0242 1.19821,0.0735 1.34373,0.10947 0.14553,0.036 1.09785,0.18974 2.11628,0.34173 1.01843,0.152 1.93085,0.40445 2.02761,0.561 0.0967,0.15656 0.64259,0.25234 1.21297,0.21285 0.57038,-0.0395 0.96534,0.0442 0.87769,0.18607 -0.22963,0.37154 1.17851,0.75467 1.66611,0.45332 0.22574,-0.13952 0.31781,-0.10379 0.2046,0.0794 -0.11321,0.18318 0.25992,0.64427 0.82919,1.02465 0.68831,0.45992 0.95601,0.86885 0.79916,1.22075 -0.12973,0.29104 -0.24958,0.87313 -0.26633,1.29352 -0.0168,0.42039 -0.18922,0.73789 -0.38325,0.70556 -0.19403,-0.0323 -0.29986,0.17933 -0.23518,0.47037 0.0647,0.29104 7.4e-4,0.41232 -0.14207,0.26951 -0.14281,-0.14281 -1.08429,0.21216 -2.09219,0.78882 -1.0079,0.57666 -1.93616,0.94486 -2.0628,0.81822 -0.12664,-0.12664 -0.23026,-0.0558 -0.23026,0.15754 0,0.35578 -1.54384,1.07149 -1.62147,0.7517 -0.0187,-0.077 -0.29448,0.0762 -0.61287,0.34048 -0.31839,0.26424 -0.81904,0.38829 -1.11255,0.27565 -0.29352,-0.11263 -0.53366,-0.056 -0.53366,0.12585 0,0.18185 -0.23813,0.23926 -0.52917,0.12758 -0.29104,-0.11169 -0.52917,-0.0432 -0.52917,0.15227 0,0.19544 -0.79338,0.54567 -1.76308,0.77829 -0.96969,0.23263 -1.67582,0.56415 -1.56918,0.73671 0.10665,0.17255 -0.0685,0.21305 -0.38918,0.09 -0.3298,-0.12656 -0.72088,-0.01 -0.90027,0.26862 -0.2007,0.31156 -0.41434,0.36283 -0.58176,0.1396 -0.34818,-0.46424 -1.14653,-0.61494 -1.14653,-0.21643 0,0.29597 -1.21211,0.63751 -3.175,0.89462 -0.48507,0.0635 -0.85447,0.25746 -0.8209,0.43095 0.0336,0.17349 -0.60143,0.27315 -1.41111,0.22148 -1.12912,-0.0721 -1.30775,-0.0178 -0.7666,0.23305 0.67722,0.31388 0.67368,0.32801 -0.0882,0.35181 -0.43656,0.0136 -0.79375,0.18355 -0.79375,0.37758 0,0.39618 0.69726,0.43734 6.04852,0.35708 2.09859,-0.0315 3.8483,0.0939 3.96589,0.28415 0.11574,0.18727 1.28328,0.35641 2.59454,0.37588 4.1287,0.0613 5.73422,0.2078 5.73487,0.52332 3.4e-4,0.16814 0.40299,0.22879 0.89478,0.13478 0.49178,-0.094 0.81882,-0.0956 0.72676,-0.004 -0.22749,0.22749 0.61463,1.11118 0.89675,0.94101 0.12353,-0.0745 0.42079,0.1009 0.66056,0.38981 0.23977,0.28891 0.35385,0.52528 0.25351,0.52528 -0.10034,0 -0.0574,0.55451 0.0955,1.23224 0.16032,0.71085 0.1446,1.14984 -0.0371,1.03751 -0.17329,-0.1071 -0.31507,-0.0266 -0.31507,0.17888 0,0.20548 -0.23812,0.37359 -0.52917,0.37359 -0.29104,0 -0.52916,0.15573 -0.52916,0.34606 0,0.19033 -0.39688,0.44567 -0.88195,0.56741 -0.48507,0.12175 -0.88194,0.32321 -0.88194,0.4477 0,0.12448 -0.35719,0.24934 -0.79375,0.27746 -2.20985,0.14233 -4.20851,0.79566 -3.91028,1.27821 0.12482,0.20195 0.06,0.264 -0.14405,0.1379 -0.20404,-0.12611 -1.35048,-0.12691 -2.54765,-0.002 -1.27327,0.13309 -1.99141,0.34199 -1.73032,0.50335 0.24548,0.15172 -0.24441,0.1832 -1.08865,0.07 -1.25297,-0.16806 -1.48314,-0.115 -1.25283,0.28878 0.22821,0.4001 0.19133,0.41037 -0.19294,0.0537 -0.59137,-0.5489 -1.74508,-0.57806 -1.74508,-0.0441 0,0.25282 -0.38414,0.32004 -1.05834,0.18521 -0.63911,-0.12783 -1.05833,-0.0647 -1.05833,0.15926 0,0.21092 -0.57493,0.32943 -1.33275,0.27471 -0.73301,-0.0529 -1.48707,-0.004 -1.67569,0.10939 -0.18862,0.11308 -1.49389,0.31911 -2.90059,0.45783 -1.4067,0.13872 -2.55764,0.37745 -2.55764,0.53052 0,0.15306 -1.62718,0.27066 -3.61597,0.26132 -3.37159,-0.0158 -4.97886,0.1265 -6.51635,0.57703 -0.34507,0.10112 -2.05615,0.27858 -3.8024,0.39436 -1.74625,0.11578 -3.22791,0.36268 -3.29259,0.54867 -0.0647,0.18598 -0.27248,0.33816 -0.46179,0.33816 -0.18931,0 -0.22817,-0.19844 -0.0863,-0.44098 0.14181,-0.24253 -0.0598,-0.16316 -0.44793,0.17639 -0.38818,0.33955 -0.85203,0.61493 -1.03078,0.61196 -0.17875,-0.003 -0.0869,-0.15929 0.20416,-0.34737 0.3814,-0.24648 0.0859,-0.33183 -1.05833,-0.30564 -1.4611,0.0334 -1.50323,0.0585 -0.52917,0.31493 0.63713,0.16772 0.089,0.19971 -1.37728,0.0804 -1.95251,-0.15892 -2.37904,-0.10668 -2.15036,0.26333 0.20055,0.32449 0.14841,0.37699 -0.17555,0.17678 -0.51847,-0.32044 -2.82373,-0.45576 -2.82341,-0.16575 1.2e-4,0.10321 -0.43635,0.22304 -0.96992,0.2663 -0.53358,0.0433 -2.23598,0.23663 -3.78311,0.42972 -1.54713,0.19309 -3.84901,0.37601 -5.11528,0.40649 -2.25042,0.0542 -2.26653,0.0612 -0.71481,0.31193 1.21247,0.19591 1.04579,0.21811 -0.70555,0.094 -1.26118,-0.0894 -2.45181,-0.14735 -2.64584,-0.12877 -0.19402,0.0186 -1.384649,0.0935 -2.645829,0.16637 -1.261181,0.0729 -2.372431,0.17445 -2.469445,0.22563 -0.16112,0.085 -0.82476,0.14573 -3.107625,0.28434 -0.448013,0.0272 -0.737259,0.17455 -0.642768,0.32744 0.09449,0.15289 -0.570828,0.19114 -1.478486,0.085 -0.907658,-0.10614 -2.602787,-0.0652 -3.766953,0.0909 -2.764651,0.3708 -28.039389,0.52663 -27.819923,0.17153 z M 42.12757,243.37146 c 0,-0.0763 -0.246371,-0.23319 -0.54749,-0.34874 -0.313945,-0.12047 -0.455549,-0.0613 -0.331957,0.13865 0.207171,0.33521 0.879447,0.49581 0.879447,0.21009 z m 98.42054,-2.34101 c -0.64501,-0.40782 -1.05388,-0.43298 -1.05388,-0.0649 0,0.15274 0.35518,0.30446 0.7893,0.33716 0.62033,0.0467 0.67697,-0.0116 0.26458,-0.2723 z m -30.89994,-1.3421 c 0.0999,-0.16169 -0.0425,-0.29399 -0.31644,-0.29399 -0.27397,0 -0.41637,0.1323 -0.31644,0.29399 0.0999,0.16169 0.24233,0.29398 0.31644,0.29398 0.0741,0 0.21651,-0.13229 0.31644,-0.29398 z m 22.43773,-16.99213 c 0,-0.19403 -0.16812,-0.35278 -0.3736,-0.35278 -0.20548,0 -0.27549,0.15875 -0.15557,0.35278 0.11991,0.19403 0.28803,0.35278 0.3736,0.35278 0.0856,0 0.15557,-0.15875 0.15557,-0.35278 z M 55.180346,196.0615 c 0,-0.0555 -0.211666,-0.18213 -0.47037,-0.2814 -0.258704,-0.0993 -0.47037,0.0273 -0.47037,0.2814 0,0.25404 0.211666,0.38067 0.47037,0.2814 0.258704,-0.0993 0.47037,-0.22591 0.47037,-0.2814 z m 31.089441,-12.08264 c 0.43881,-0.55953 0.426332,-0.572 -0.133193,-0.13319 -0.587639,0.46085 -0.774516,0.75055 -0.484168,0.75055 0.07326,0 0.351069,-0.27781 0.617361,-0.61736 z m -48.728328,-4.7892 c 0,-0.0632 -0.436563,-0.49975 -0.970139,-0.97014 l -0.970139,-0.85524 0.855244,0.97014 c 0.799355,0.90674 1.085034,1.13191 1.085034,0.85524 z m 23.106942,-5.17677 c 0.119916,-0.19403 -0.03883,-0.35278 -0.352777,-0.35278 -0.313944,0 -0.472694,0.15875 -0.352778,0.35278 0.119916,0.19403 0.278666,0.35278 0.352778,0.35278 0.07411,0 0.232862,-0.15875 0.352777,-0.35278 z m 13.464351,-16.74143 c 0,-0.2825 -0.134881,-0.43028 -0.299736,-0.3284 -0.164855,0.10189 -0.208402,0.33303 -0.09677,0.51365 0.285264,0.46157 0.396508,0.4096 0.396508,-0.18525 z m -27.487266,26.72302 c 0.436562,-0.0841 1.150937,-0.0841 1.5875,0 0.436562,0.0841 0.07937,0.15288 -0.79375,0.15288 -0.873125,0 -1.230313,-0.0688 -0.79375,-0.15288 z m 64.979464,-18.06737 c -0.62686,-0.78006 -1.30025,-1.31909 -1.49641,-1.19785 -0.19616,0.12123 -0.25765,0.0602 -0.13663,-0.13558 0.24858,-0.40222 -1.26783,-1.97426 -1.63649,-1.69652 -0.13113,0.0988 -0.17599,0.0907 -0.0997,-0.0179 0.22188,-0.31593 -3.37454,-3.5189 -3.80538,-3.38908 -0.21465,0.0647 -0.28839,0.0157 -0.16388,-0.10878 0.30524,-0.30525 -4.681869,-5.13744 -5.060581,-4.90339 -0.16421,0.10149 -0.254942,0.0411 -0.201628,-0.13429 0.131458,-0.43237 -3.602452,-3.95347 -4.096215,-3.86276 -0.216128,0.0397 -0.359832,-0.10657 -0.319343,-0.32506 0.112494,-0.60701 -3.011412,-3.38614 -3.480412,-3.09629 -0.227169,0.1404 -0.311307,0.0973 -0.190787,-0.0977 0.283191,-0.45822 -2.705568,-3.38546 -3.095012,-3.03131 -0.16483,0.14989 -0.195776,0.0907 -0.06877,-0.13148 0.22233,-0.38897 -0.692268,-1.01119 -1.290553,-0.87798 -0.159943,0.0356 -0.201369,-0.08 -0.09206,-0.25683 0.222284,-0.35967 -7.097365,-7.28063 -7.700031,-7.28063 -0.211075,0 -0.383773,-0.1916 -0.383773,-0.42578 0,-0.23418 -0.255629,-0.63106 -0.568065,-0.88195 -1.138789,-0.91445 -1.082924,-1.69794 0.213505,-2.99437 0.680078,-0.68008 1.236504,-1.3624 1.236504,-1.51626 0,-0.15387 0.238125,-0.37114 0.529167,-0.48282 0.291042,-0.11168 0.529167,-0.37616 0.529167,-0.58773 0,-0.21157 -0.198438,-0.26864 -0.440973,-0.12682 -0.242534,0.14182 -0.141943,-0.0832 0.223537,-0.50003 0.36548,-0.41683 0.783163,-0.68454 0.928185,-0.59491 0.145023,0.0896 0.793025,-0.29921 1.440005,-0.86409 0.64698,-0.56488 1.284225,-0.96036 1.416099,-0.87886 0.131873,0.0815 0.330798,-0.089 0.442053,-0.37896 0.111256,-0.28992 0.454759,-0.52714 0.763341,-0.52714 0.308582,0 0.472096,-0.14394 0.363363,-0.31987 -0.108733,-0.17594 0.120023,-0.2368 0.508347,-0.13525 0.388323,0.10155 0.706042,0.0242 0.706042,-0.17178 0,-0.23984 0.460673,-0.23948 1.408539,10e-4 1.156796,0.29362 1.574388,0.24885 2.33649,-0.25049 0.510374,-0.33441 0.819662,-0.43281 0.687308,-0.21865 -0.1362,0.22037 -0.0019,0.38937 0.309343,0.38937 0.829048,0 1.088913,-0.13949 0.985849,-0.52917 -0.05132,-0.19403 0.107433,-0.11075 0.352778,0.18507 0.473008,0.5703 4.05484,1.61543 4.389485,1.28079 0.108645,-0.10865 0.441817,0.0467 0.740385,0.34531 0.301269,0.30127 0.905804,0.47347 1.358438,0.38694 0.448573,-0.0858 0.742867,-0.0382 0.653986,0.10557 -0.08888,0.14381 0.211787,0.33285 0.668147,0.42009 0.96933,0.1853 3.8998,-0.86702 3.50734,-1.25948 -0.14677,-0.14677 -0.006,-0.16678 0.3127,-0.0445 0.37938,0.14558 0.71685,-0.0342 0.97708,-0.5204 0.21864,-0.40854 0.54471,-0.65184 0.72459,-0.54067 0.7059,0.43627 6.89453,-6.27382 6.44985,-6.99332 -0.12404,-0.20071 -0.0413,-0.24411 0.19123,-0.10036 0.22917,0.14163 0.50272,0.0111 0.62064,-0.29625 0.11598,-0.30222 0.34468,-0.46679 0.50824,-0.36571 0.16355,0.10108 0.23459,-0.1422 0.15786,-0.54062 -0.0767,-0.39842 0.001,-0.63752 0.17289,-0.53133 0.29867,0.18459 2.71144,-2.98369 2.55057,-3.34922 -0.0427,-0.097 0.0869,-0.17639 0.28802,-0.17639 0.46221,0 1.05536,-0.93332 0.82748,-1.30203 -0.0943,-0.15257 0.0749,-0.18285 0.37605,-0.0673 0.31899,0.12241 0.54749,0.0217 0.54749,-0.24126 0,-0.24824 0.79375,-1.36394 1.76389,-2.47933 1.71893,-1.97629 2.18225,-2.73667 1.3566,-2.22639 -0.26026,0.16085 -0.31118,0.0962 -0.14106,-0.17904 0.14642,-0.23692 0.3486,-0.34838 0.44928,-0.2477 0.28238,0.28238 1.33174,-0.90157 1.35027,-1.52347 0.009,-0.30411 0.19248,-0.51825 0.40759,-0.47586 0.21511,0.0424 0.83706,-0.5076 1.3821,-1.2222 0.54505,-0.71459 1.28024,-1.588498 1.63376,-1.942012 0.35351,-0.353515 0.53306,-0.820243 0.39899,-1.037172 -0.13884,-0.224645 -0.0855,-0.296587 0.12398,-0.167136 0.20227,0.125005 0.96166,-0.497501 1.68754,-1.383346 0.72589,-0.885846 2.09305,-2.417124 3.03815,-3.402841 1.71312,-1.786749 2.08339,-2.3021 1.31107,-1.824782 -0.25234,0.155956 -0.31153,0.09677 -0.15557,-0.155569 0.13844,-0.224006 0.41037,-0.407285 0.60429,-0.407285 0.42061,0 3.30995,-3.112037 3.30995,-3.565069 0,-0.173517 0.12528,-0.308611 0.27839,-0.300207 0.22087,0.01212 4.27155,-3.439233 7.65911,-6.525912 1.69119,-1.540975 3.30646,-2.621982 3.62431,-2.42554 0.20809,0.128603 0.25956,0.05471 0.11962,-0.171715 -0.14732,-0.23836 0.3987,-0.798509 1.36406,-1.399364 0.88534,-0.551048 1.52697,-1.111095 1.42586,-1.244548 -0.10112,-0.133454 -0.0927,-0.177979 0.0187,-0.09895 0.11137,0.07903 1.31696,-0.487831 2.67909,-1.259701 1.36213,-0.77187 2.67641,-1.326725 2.92063,-1.23301 0.24422,0.09371 0.70394,-0.13317 1.02162,-0.504187 0.31767,-0.371017 0.8663,-0.674577 1.21917,-0.674577 0.35287,0 0.9372,-0.216162 1.29852,-0.48036 0.36131,-0.264199 0.9721,-0.397942 1.35731,-0.297207 0.41684,0.109006 0.6118,0.03983 0.48158,-0.170864 -0.26978,-0.436519 2.7016,-0.224697 4.03146,0.287392 1.68846,0.650174 2.15065,3.118946 1.32007,7.051083 -0.22076,1.045128 -0.4192,2.242261 -0.44097,2.660296 -0.0218,0.418034 -0.15865,0.686478 -0.30417,0.596541 -0.14552,-0.08994 -0.26459,0.02017 -0.26459,0.244674 0,0.588105 -3.21723,7.126595 -3.79102,7.704625 -0.26559,0.267552 -0.3962,0.71236 -0.29025,0.988461 0.10595,0.276102 0.0425,0.409192 -0.14108,0.295757 -0.41379,-0.255737 -1.48877,1.738941 -1.14344,2.121711 0.13778,0.152721 0.0754,0.177878 -0.13868,0.0559 -0.21446,-0.122201 -0.89745,0.485953 -1.52123,1.354552 -0.62261,0.866977 -1.06664,1.576321 -0.98673,1.576321 0.0799,0 -0.54947,0.735534 -1.39865,1.63452 -1.72225,1.823287 -2.88396,3.359981 -2.80917,3.715941 0.0272,0.12935 -0.0951,0.36748 -0.27172,0.52917 -0.1895,0.17347 -0.20978,0.0771 -0.0495,-0.23519 0.14942,-0.29104 -0.12752,-0.053 -0.61542,0.52899 -0.48789,0.58199 -0.82456,1.15932 -0.74815,1.28295 0.0764,0.12363 -0.13714,0.44121 -0.47455,0.70573 -0.56725,0.4447 -0.57406,0.42777 -0.0904,-0.22461 0.51663,-0.69685 0.51346,-0.69736 -0.25627,-0.041 -0.42864,0.36548 -0.69192,0.80598 -0.58506,0.97888 0.10686,0.1729 0.0458,0.27075 -0.13565,0.21744 -0.34759,-0.10213 -6.58616,6.06236 -6.59597,6.51764 -0.003,0.14552 -0.1396,0.2491 -0.30325,0.23017 -0.51692,-0.0598 -2.33322,1.89004 -2.10484,2.25957 0.12009,0.19432 0.0641,0.25797 -0.12443,0.14146 -0.42252,-0.26114 -3.82318,2.71913 -3.82318,3.35055 0,0.25105 -0.19843,0.47629 -0.44097,0.50054 -0.24253,0.0243 -0.6167,0.064 -0.83149,0.0882 -0.21479,0.0243 -0.29598,0.29047 -0.18043,0.59159 0.11555,0.30111 0.0625,0.45627 -0.11788,0.34479 -0.58868,-0.36383 -6.857,5.52814 -6.41227,6.02729 0.12206,0.13701 0.0403,0.14528 -0.18173,0.0184 -0.56065,-0.32043 -8.62436,7.73711 -8.38009,8.37368 0.10384,0.27059 -0.005,0.61195 -0.24254,0.75857 -0.29423,0.18184 -0.34821,0.10909 -0.16982,-0.2289 0.14383,-0.27252 -0.0662,-0.0986 -0.46682,0.38646 -0.70762,0.85688 -0.88148,1.27714 -0.77705,1.87831 0.0278,0.15994 -0.10073,0.19732 -0.2856,0.0831 -0.42869,-0.26495 -0.8683,1.07291 -0.53157,1.61775 0.16673,0.26977 0.0989,0.3148 -0.19783,0.1314 -0.34338,-0.21222 -0.41633,0.0222 -0.30463,0.97908 0.0808,0.69197 0.025,1.18279 -0.124,1.09071 -0.28423,-0.17567 -0.0395,2.48032 0.31252,3.3919 0.11239,0.29105 0.19561,1.12448 0.18492,1.85209 -0.0107,0.7276 0.13526,1.32291 0.32433,1.32291 0.18907,0 0.25243,0.14778 0.1408,0.32841 -0.11163,0.18062 -0.034,0.4328 0.17245,0.56041 0.20648,0.12761 0.32813,0.57515 0.27034,0.99452 -0.0578,0.41937 0.0597,0.73403 0.26109,0.69924 0.54526,-0.0942 0.37574,6.18669 -0.20166,7.47159 -0.26158,0.58208 -0.50116,1.29646 -0.5324,1.5875 -0.0312,0.29104 -0.0803,0.73697 -0.10904,0.99096 -0.0287,0.25398 -0.21099,0.36368 -0.40501,0.24376 -0.32328,-0.19979 -0.50989,0.28213 -0.38582,0.99636 0.0278,0.15995 -0.0942,0.20138 -0.27103,0.0921 -0.46475,-0.28723 -1.21583,0.74319 -0.90652,1.24367 0.16528,0.26743 0.11164,0.33026 -0.14601,0.17102 -0.22401,-0.13844 -0.40729,-0.10677 -0.40729,0.0704 0,0.17715 -0.39402,0.74724 -0.87559,1.26686 -0.99223,1.07064 -1.78028,2.38069 -1.6688,2.77422 0.0412,0.14553 -0.12349,0.2249 -0.36603,0.17639 -0.24253,-0.0485 -0.38805,0.14993 -0.32338,0.44098 0.0647,0.29104 -9e-5,0.41148 -0.14393,0.26764 -0.14383,-0.14384 -0.4607,-0.0962 -0.70415,0.10583 -0.32822,0.2724 -0.73724,7.6e-4 -1.5824,-1.05092 z m 1.43095,0.90851 c 0,-0.0669 -0.35719,-0.42413 -0.79375,-0.79375 l -0.79375,-0.67204 0.67203,0.79375 c 0.63155,0.74593 0.91547,0.95435 0.91547,0.67204 z m -59.266665,-8.47815 c 0,-0.0733 0.277813,-0.35106 0.617361,-0.61736 0.559526,-0.43881 0.572003,-0.42633 0.133193,0.1332 -0.460858,0.58764 -0.750554,0.77451 -0.750554,0.48416 z m 40.712312,-2.42444 -0.672037,-0.79375 0.79375,0.67204 c 0.745929,0.63155 0.954349,0.91546 0.672037,0.91546 -0.06694,0 -0.424129,-0.35719 -0.79375,-0.79375 z m -10.213635,-15.16944 -1.394512,-1.49931 1.499305,1.39451 c 1.394339,1.29688 1.661416,1.6041 1.394512,1.6041 -0.05764,0 -0.732324,-0.67469 -1.499305,-1.4993 z M 168.83048,75.235119 c 0,-0.48507 0.0801,-0.683507 0.17794,-0.440973 0.0979,0.242535 0.0979,0.63941 0,0.881945 -0.0979,0.242535 -0.17794,0.0441 -0.17794,-0.440972 z"
         id="path2" /><path
         style="fill:#dc2626;fill-opacity:1"
         d="M 7.3092383,270.31851 C 5.4010119,269.54645 4.851992,266.1337 6.3496776,264.3538 l 0.910994,-1.08265 88.3624204,-0.004 c 66.075488,-0.003 88.557418,0.0985 89.135528,0.40284 0.81645,0.42978 1.28791,0.97485 1.29687,1.49938 0.003,0.17385 -0.38475,-0.10489 -0.86161,-0.61943 l -0.86701,-0.93552 -88.593329,0.0903 -88.5933262,0.0903 -0.6743767,0.83283 c -1.061377,1.31076 -0.9002166,3.40532 0.3588925,4.66443 l 1.0332693,1.03327 88.2114951,-0.0903 88.211495,-0.0903 0.92523,-0.92524 c 0.67553,-0.67555 0.92743,-1.29438 0.93341,-2.29306 0.006,-0.94468 0.0849,-1.15705 0.25635,-0.6865 0.35897,0.98546 0.0724,2.0607 -0.86126,3.23165 l -0.81803,1.02592 -88.316089,0.0673 c -50.897169,0.0388 -88.6445643,-0.0656 -89.0913627,-0.24638 z M 61.530346,247.02053 c -6.458219,-0.42146 -14.588224,-1.64958 -17.379879,-2.62542 -1.403635,-0.49064 -2.848601,-0.96436 -3.211034,-1.05269 -0.853797,-0.20809 -5.382824,-2.53901 -6.749363,-3.47364 -0.582083,-0.39811 -2.248958,-1.91148 -3.704166,-3.36305 l -2.645833,-2.63921 2.698848,2.49431 c 3.166991,2.92697 7.856591,5.85256 10.706706,6.67934 0.194028,0.0563 1.480789,0.49867 2.859468,0.98308 1.37868,0.4844 3.204305,0.96524 4.056944,1.06853 0.85264,0.10329 3.852129,0.51056 6.665532,0.90504 11.921027,1.6715 32.768819,0.97725 59.443051,-1.97951 4.26861,-0.47316 8.07861,-0.84308 8.46667,-0.82204 1.05972,0.0575 -7.71985,1.225 -12.63096,1.67972 -26.216551,2.42741 -36.975156,2.9026 -48.575984,2.14554 z m 63.147214,-3.83517 c 0,-0.20945 0.35719,-0.39007 0.79375,-0.40139 2.12089,-0.055 5.88505,-0.43119 9.92491,-0.99188 2.45266,-0.34041 4.33839,-0.51243 4.1905,-0.38228 -0.24326,0.21409 -6.0801,1.04903 -11.0286,1.57761 -1.06715,0.11398 -2.37684,0.29083 -2.91042,0.393 -0.5739,0.10988 -0.97014,0.0302 -0.97014,-0.19506 z m 20.46111,-2.33741 c 10.2073,-1.39259 14.50286,-2.16629 19.75556,-3.5583 0.48507,-0.12854 0.79915,-0.14072 0.69797,-0.0271 -0.39163,0.43993 -6.36776,1.97721 -8.42609,2.16751 -1.19183,0.11019 -2.83776,0.34934 -3.65762,0.53145 -2.06333,0.4583 -9.73241,1.44152 -10.82461,1.38776 -0.49313,-0.0243 0.61153,-0.24989 2.45479,-0.50136 z m -36.12338,-1.1596 c -0.0999,-0.16169 0.0425,-0.29399 0.31644,-0.29399 0.27397,0 0.41637,0.1323 0.31644,0.29399 -0.0999,0.16169 -0.24233,0.29398 -0.31644,0.29398 -0.0741,0 -0.21651,-0.13229 -0.31644,-0.29398 z m 56.93727,-2.46743 c 0,-0.18541 0.36035,-0.42755 0.80077,-0.53808 1.38465,-0.34753 2.37423,-1.55335 2.37423,-2.89305 0,-1.00479 -0.207,-1.35238 -1.14653,-1.92522 -0.63059,-0.38448 -1.42434,-0.69964 -1.76389,-0.70037 -0.33955,-7.2e-4 -0.61736,-0.1622 -0.61736,-0.35883 0,-0.43179 2.36545,0.50682 3.21511,1.27576 1.44988,1.31212 0.81555,3.42389 -1.39992,4.66058 -0.80433,0.44897 -1.46241,0.66462 -1.46241,0.47921 z M 26.505782,231.78024 c -1.545208,-2.99953 -1.918556,-4.48008 -1.756948,-6.96736 0.280135,-4.31148 0.674876,-4.51747 0.647987,-0.33814 -0.02561,3.98115 0.0018,4.12807 1.232263,6.61459 0.692151,1.39865 1.162233,2.543 1.044626,2.543 -0.117607,0 -0.643174,-0.83344 -1.167928,-1.85209 z m 136.271778,-1.35122 c -0.6791,-0.16987 -4.44941,-0.41695 -8.37847,-0.54907 -3.92906,-0.13211 -7.14386,-0.33406 -7.144,-0.44878 -4.5e-4,-0.39112 14.09912,0.31589 16.13723,0.80919 1.11709,0.27037 1.71357,0.49292 1.32552,0.49456 -0.38806,0.002 -1.26118,-0.13602 -1.94028,-0.3059 z m -14.64028,-1.76165 c -0.58643,-0.23033 -0.52319,-0.2813 0.37453,-0.30191 0.59405,-0.0136 2.31985,-0.34952 3.83511,-0.74641 1.51526,-0.39688 2.82211,-0.65451 2.9041,-0.57252 0.082,0.082 -0.92942,0.42342 -2.2476,0.75872 -1.31818,0.3353 -2.79357,0.7288 -3.27864,0.87443 -0.48507,0.14564 -1.19944,0.1401 -1.5875,-0.0123 z m 9.17222,-2.27556 c 0.77612,-0.26512 2.76049,-0.88585 4.40973,-1.3794 4.07942,-1.2208 8.09541,-3.53303 8.92463,-5.13841 0.35078,-0.6791 0.54998,-0.94393 0.44268,-0.58851 -0.1073,0.35542 -0.19509,0.78579 -0.19509,0.95639 0,1.20618 -4.96246,3.84241 -10.36424,5.50584 -3.72784,1.14795 -6.05831,1.61445 -3.21771,0.64409 z m -25.75277,-3.69559 c -0.11992,-0.19403 -0.0499,-0.35278 0.15557,-0.35278 0.20548,0 0.3736,0.15875 0.3736,0.35278 0,0.19403 -0.07,0.35278 -0.15557,0.35278 -0.0856,0 -0.25369,-0.15875 -0.3736,-0.35278 z M 25.552417,219.98301 c 0.003,-0.15697 0.159291,-0.52353 0.347376,-0.81457 0.29471,-0.45603 0.34272,-0.44672 0.347376,0.0674 0.003,0.3281 -0.153348,0.69466 -0.347376,0.81457 -0.194028,0.11992 -0.350347,0.0896 -0.347376,-0.0674 z m 0.700154,-1.60847 c 0,-0.38848 1.385952,-3.43943 1.562426,-3.43943 0.09701,0 -0.145445,0.75081 -0.538799,1.66846 -0.696126,1.624 -1.023627,2.19061 -1.023627,1.77097 z m 144.091669,-0.64641 c -0.55695,-0.90115 -5.43866,-2.51362 -9.03254,-2.98352 -4.63174,-0.6056 -5.46003,-0.82693 -2.4147,-0.64527 4.5038,0.26868 10.43093,2.02275 11.60167,3.4334 0.26354,0.31755 0.38973,0.57737 0.2804,0.57737 -0.10932,0 -0.30499,-0.17189 -0.43483,-0.38198 z M 28.935815,212.78245 c 1.089489,-1.95467 8.915607,-9.53476 11.780644,-11.41029 1.455208,-0.95262 3.082395,-2.0321 3.615972,-2.39884 0.533576,-0.36675 0.970138,-0.58146 0.970138,-0.47715 0,0.10431 -1.189496,0.99232 -2.643325,1.97336 -5.39511,3.64058 -10.729292,8.51758 -12.658381,11.57346 -1.119992,1.77418 -1.971167,2.36515 -1.065048,0.73946 z m 124.640125,0.95488 c -0.0808,-0.0767 -2.20031,-0.33217 -4.70992,-0.56773 -3.17032,-0.29757 -15.44446,-0.44683 -40.21666,-0.48906 -27.803599,-0.0474 -36.174652,-0.16279 -38.019627,-0.52414 -2.401877,-0.47042 -3.258863,-0.98571 -2.817402,-1.69406 0.356807,-0.57252 6.12394,-4.05279 6.346705,-3.83002 0.103896,0.10389 0.04338,0.18909 -0.134478,0.18933 -0.177859,2.4e-4 -0.784634,0.39711 -1.348389,0.88194 -0.563756,0.48484 -1.214625,0.88152 -1.446376,0.88152 -0.661335,0 -3.398314,2.10497 -3.185244,2.44973 0.105092,0.17004 1.341451,0.51538 2.747464,0.76741 1.998673,0.35828 9.82947,0.44177 35.893887,0.38269 27.61316,-0.0626 34.45813,0.0186 39.86388,0.4731 6.71121,0.56419 10.445,1.0967 8.26088,1.17817 -0.59825,0.0223 -1.15387,-0.0222 -1.23472,-0.0989 z m -76.826765,-9.26185 c 4.989339,-3.64735 13.103768,-10.96478 12.765674,-11.51182 -0.123241,-0.19941 -0.06976,-0.2672 0.11884,-0.15063 0.516941,0.31949 8.836493,-8.26406 15.091201,-15.57007 3.04707,-3.55923 5.48889,-6.50821 5.42626,-6.5533 -0.35205,-0.25346 -8.43,-7.63789 -9.51216,-8.69551 -0.70853,-0.69246 -3.963764,-3.72827 -7.233857,-6.74624 -3.270092,-3.01798 -6.263123,-5.86224 -6.651178,-6.32059 -0.986612,-1.16533 1.923147,1.36176 5.291666,4.59575 1.552222,1.49023 4.727222,4.43175 7.055555,6.53671 2.328334,2.10495 4.868334,4.42078 5.644444,5.14626 0.77611,0.72549 2.4349,2.27284 3.6862,3.43854 l 2.2751,2.11947 -1.98953,2.41817 c -1.09423,1.32999 -2.43553,2.90387 -2.98064,3.49752 -0.54512,0.59364 -2.6051,2.89551 -4.57772,5.11527 -8.29851,9.33817 -18.902146,19.36818 -24.522803,23.19618 -2.509178,1.7089 -2.428925,1.34247 0.112948,-0.51571 z m -31.043767,-6.09472 c 0.143291,-0.42987 5.266453,-3.27839 8.328411,-4.63065 2.83067,-1.25013 1.496347,-0.36879 -2.469445,1.6311 -2.182812,1.10076 -4.427383,2.32597 -4.987935,2.7227 -0.563988,0.39915 -0.953016,0.5228 -0.871031,0.27685 z m 8.534198,-2.31926 c 0,-0.25405 0.211666,-0.38068 0.47037,-0.2814 0.258704,0.0993 0.47037,0.2259 0.47037,0.2814 0,0.0555 -0.211666,0.18212 -0.47037,0.2814 -0.258704,0.0993 -0.47037,-0.0274 -0.47037,-0.2814 z m -0.893008,-3.53884 c -0.103098,-0.1031 -0.52887,-0.25321 -0.94616,-0.33357 -0.844637,-0.16266 -5.33398,-2.97191 -5.33398,-3.33779 0,-0.12803 0.540115,-0.42809 1.200256,-0.6668 1.444585,-0.52237 7.861989,-4.14207 8.85391,-4.994 0.388055,-0.33329 0.94368,-0.72107 1.234722,-0.86173 0.291042,-0.14066 0.132292,0.0948 -0.352778,0.52333 -0.485069,0.4285 -0.838323,0.92864 -0.785009,1.11143 0.05331,0.1828 -0.02606,0.26231 -0.176389,0.17669 -0.150328,-0.0856 -0.749574,0.13108 -1.331657,0.48155 -2.528442,1.52235 -6.244444,3.54662 -7.125579,3.88163 l -0.956577,0.36369 1.869371,1.30292 c 1.028154,0.7166 2.687889,1.57078 3.6883,1.89817 1.000411,0.32739 1.4882,0.60576 1.083976,0.61859 -0.404225,0.0128 -0.819307,-0.061 -0.922406,-0.16411 z m 32.172635,-8.05963 c 0,-0.0733 0.277812,-0.35107 0.617361,-0.61736 0.559525,-0.43881 0.572003,-0.42634 0.133193,0.13319 -0.460858,0.58764 -0.750554,0.77452 -0.750554,0.48417 z m -39.177872,-0.60756 c -2.016197,-0.16797 -3.025785,-0.44957 -4.145138,-1.15619 -0.813871,-0.51377 -1.479764,-0.84469 -1.479764,-0.73536 0,0.73773 -7.775761,-6.59677 -10.018895,-9.45034 l -1.31723,-1.67569 1.170146,0.0352 c 1.059038,0.0318 1.087156,0.0583 0.296126,0.27862 -0.826746,0.23029 -0.642097,0.48178 3.413955,4.64976 3.259676,3.34963 4.942172,4.78061 7.015961,5.96714 2.707722,1.54924 2.754742,1.56121 6.329948,1.61233 3.006525,0.043 4.178108,-0.11426 7.087225,-0.95124 1.916894,-0.55151 3.628216,-0.95637 3.802937,-0.8997 0.457918,0.14854 -5.903634,2.01634 -7.848814,2.30448 -0.902595,0.1337 -2.840501,0.14317 -4.306457,0.021 z m 13.601485,-9.84258 c -0.119916,-0.19403 -0.04991,-0.35278 0.155569,-0.35278 0.205479,0 0.373598,0.15875 0.373598,0.35278 0,0.19403 -0.07001,0.35278 -0.155569,0.35278 -0.08556,0 -0.253682,-0.15875 -0.373598,-0.35278 z m -26.987498,-3.40715 c 2.605941,-0.86895 3.527778,-1.09836 3.527778,-0.87794 0,0.2715 -2.872609,1.13006 -3.621035,1.08224 -0.248379,-0.0159 -0.20826,-0.10376 0.09326,-0.2043 z m 4.057603,-1.18003 c 0.119554,-0.19344 0.379613,-0.35171 0.57791,-0.35171 0.833582,0 7.581124,-3.68594 9.475597,-5.17617 2.608337,-2.05178 6.627039,-5.37005 7.212618,-5.9555 2.672909,-2.67233 7.25127,-7.64531 7.25127,-7.87626 0,-0.15302 0.436562,-0.67954 0.970139,-1.17004 0.533576,-0.4905 1.598643,-1.70312 2.366815,-2.69471 0.768172,-0.99159 1.615705,-1.88693 1.883408,-1.98966 0.99959,-0.38358 -6.281807,7.89713 -11.684892,13.28855 -3.27084,3.26377 -5.68385,5.23956 -9.634393,7.88869 -3.169795,2.12558 -8.950396,4.89748 -8.418472,4.03681 z m 75.337259,-2.96198 -0.86208,-1.0939 0.91433,0.82148 0.91434,0.82149 1.71163,-2.07393 c 0.9414,-1.14066 2.26241,-2.89101 2.93558,-3.88967 0.67317,-0.99865 1.27344,-1.76624 1.33393,-1.70575 0.17868,0.17869 -1.12248,2.31755 -1.41135,2.31999 -0.14552,0.001 -0.26458,0.17395 -0.26458,0.38383 0,0.39002 -1.94368,2.91453 -3.52778,4.58199 l -0.88194,0.92836 z m -4.51921,-3.84845 c -4.55761,-4.32949 -8.60938,-8.09883 -12.965902,-12.06211 -2.132796,-1.94028 -5.544685,-5.12788 -7.581977,-7.08355 -2.037291,-1.95567 -5.053541,-4.7995 -6.702777,-6.31961 -1.649236,-1.52011 -3.382558,-3.12539 -3.851827,-3.56727 l -0.853217,-0.80343 1.263631,-1.54209 c 2.980287,-3.63705 6.761522,-6.77054 8.599523,-7.12639 l 1.015501,-0.1966 -1.058333,0.40358 c -1.818303,0.69338 -4.330721,2.74085 -6.707984,5.46661 -1.258317,1.44278 -2.285418,2.73723 -2.282447,2.87655 0.01183,0.55456 0.290213,0.82185 15.327864,14.7172 2.309762,2.1343 4.779873,4.43618 5.489136,5.11528 0.709262,0.67909 3.332729,3.13972 5.829929,5.46805 7.72336,7.20109 8.10386,7.56929 7.83027,7.57711 -0.14631,0.004 -1.65444,-1.31131 -3.35139,-2.92333 z m 11.90767,-4.52108 c 0,-0.11038 0.27195,-0.74102 0.60433,-1.40142 0.81567,-1.62064 0.79633,-5.81302 -0.0405,-8.78544 -0.84179,-2.98999 -1.07756,-4.49598 -0.3866,-2.46945 1.45588,4.26997 1.90068,8.14394 1.17873,10.26611 -0.38062,1.11883 -1.35594,2.83809 -1.35594,2.3902 z M 85.286986,147.84426 c -0.163306,-0.25782 -2.51942,-2.52429 -5.235808,-5.0366 -2.716389,-2.51231 -5.288496,-4.93264 -5.715794,-5.37852 -0.427298,-0.44588 -0.856059,-0.81069 -0.952802,-0.81069 -0.09674,0 -1.4615,1.5875 -3.032792,3.52777 -1.571293,1.94028 -2.928252,3.52778 -3.015464,3.52778 -0.08721,0 1.196322,-1.70656 2.8523,-3.79236 1.655977,-2.0858 3.066942,-3.79236 3.135478,-3.79236 0.113726,0 6.027721,5.45261 10.781625,9.94049 1.064737,1.00515 1.833351,1.93009 1.708031,2.05541 -0.125319,0.12532 -0.361467,0.0169 -0.524774,-0.24092 z m 33.912524,-4.53921 c -0.14137,-0.22875 -0.25803,-1.49438 -0.25925,-2.81251 -0.002,-2.509 0.71099,-4.51649 2.25398,-6.34354 l 0.74483,-0.88194 -0.57103,0.97014 c -0.31407,0.53357 -0.80445,1.33196 -1.08974,1.7742 -0.28529,0.44223 -0.61849,1.43442 -0.74044,2.20486 -0.12196,0.77044 -0.26796,1.48017 -0.32446,1.57719 -0.0565,0.097 0.0214,0.97014 0.17318,1.94027 0.28959,1.85135 0.24055,2.26323 -0.18707,1.57133 z m 3.90107,-11.71369 c 0.73004,-0.82461 1.99095,-2.1343 2.80202,-2.91041 5.21956,-4.99456 7.59719,-7.20368 11.82774,-10.98951 6.09689,-5.45597 14.30323,-13.65954 17.06209,-17.05632 2.52605,-3.110152 4.22485,-4.931791 4.05154,-4.344498 -0.29062,0.984806 -9.56801,11.020358 -14.16676,15.324478 -2.75363,2.57721 -5.40347,5.09387 -5.88854,5.59257 -0.48507,0.4987 -3.28221,3.0742 -6.21587,5.72333 -2.93365,2.64913 -6.42274,6.01878 -7.75352,7.48813 -1.33078,1.46935 -2.56055,2.67154 -2.73282,2.67154 -0.17227,0 0.28408,-0.67469 1.01412,-1.49931 z m -24.479061,-5.96095 c -0.651868,-0.18759 -1.103885,-0.4224 -1.004484,-0.5218 0.0994,-0.0994 0.815871,0.01 1.592155,0.24214 1.54424,0.46267 3.20971,0.26866 4.79517,-0.55857 0.56244,-0.29347 1.10085,-0.45535 1.19645,-0.35974 0.0956,0.0956 -0.57617,0.49532 -1.49284,0.88825 -1.78872,0.76674 -3.19977,0.85266 -5.086451,0.30972 z m -4.282843,-1.20048 c -1.356027,-0.3884 -1.433184,-0.45493 -0.529166,-0.45625 0.582083,-8.6e-4 1.613958,0.21242 2.293055,0.47393 1.572052,0.6054 0.369374,0.59334 -1.763889,-0.0177 z m 14.085954,-3.17916 c 1.6354,-1.73424 4.54024,-5.13753 6.45521,-7.56288 9.49957,-12.03139 17.32526,-21.309456 18.57459,-22.021841 0.45427,-0.259029 -1.58136,2.256847 -2.40456,2.971846 -0.1117,0.09701 -1.06555,1.208264 -2.11966,2.469444 -1.05412,1.261181 -2.09366,2.451805 -2.31008,2.645833 -0.21643,0.194028 -1.02184,1.146528 -1.78982,2.116668 -0.76797,0.97014 -1.66679,2.08139 -1.99738,2.46944 -1.01519,1.19166 -6.73519,8.3852 -7.85553,9.87921 -0.58141,0.77532 -1.00474,1.56843 -0.94074,1.76246 0.064,0.19403 0.009,0.24542 -0.12221,0.1142 -0.13122,-0.13122 -1.39112,1.13878 -2.79979,2.82222 -2.45171,2.92994 -3.99626,4.48455 -5.13627,5.1697 -0.28997,0.17427 0.81084,-1.10207 2.44624,-2.8363 z m -21.432852,2.48865 c 0.23549,-0.23549 5.22218,-0.29939 5.45171,-0.0699 0.1001,0.1001 -1.124803,0.19598 -2.722007,0.21308 -1.597204,0.0171 -2.82557,-0.0473 -2.729703,-0.14322 z M 159.77206,94.43918 c 0.52734,-0.691377 1.4912,-2.080439 2.14192,-3.086806 0.65072,-1.006366 1.31809,-1.988506 1.48306,-2.182534 0.16496,-0.194028 1.04082,-1.860903 1.94635,-3.704167 0.90552,-1.843263 1.65115,-3.144741 1.65696,-2.892171 0.0297,1.29357 -7.07171,13.11746 -7.88063,13.121279 -0.16855,7.96e-4 0.125,-0.564225 0.65234,-1.255601 z m -23.65729,-5.798507 c 1.34276,-1.455208 3.64464,-3.728477 5.11528,-5.051708 1.47065,-1.323231 3.07078,-2.773702 3.55584,-3.22327 0.48507,-0.449567 2.15195,-1.708505 3.70417,-2.797641 1.55222,-1.089135 2.98097,-2.106621 3.175,-2.261079 1.18008,-0.939416 8.95085,-4.681212 9.65013,-4.646748 0.45565,0.02246 -1.15645,1.047114 -1.64743,1.047114 -0.72136,0 -5.8864,2.628423 -8.17909,4.162233 -3.21675,2.152008 -8.9624,6.95987 -13.51667,11.310522 -3.24334,3.098328 -3.69927,3.456885 -1.85723,1.460577 z m 30.9249,-6.746618 c -0.0158,-0.121126 0.21423,-0.908983 0.51124,-1.750793 0.297,-0.841809 0.63712,-2.679303 0.7558,-4.08332 0.33739,-3.991331 -0.46241,-5.16348 -3.76526,-5.518193 -0.91461,-0.09822 -0.7592,-0.147241 0.59941,-0.189061 1.70328,-0.05243 1.90005,0.02997 2.75821,1.155085 1.46444,1.91998 1.34972,5.625065 -0.29019,9.37179 -0.29724,0.679097 -0.55338,1.135618 -0.56921,1.014492 z M 161.84703,70.75639 c 0.37575,-0.375751 1.31349,-0.441624 1.08778,-0.07641 -0.10939,0.176996 -0.4541,0.32181 -0.76603,0.32181 -0.31193,0 -0.45672,-0.110429 -0.32175,-0.245396 z"
         id="path1" /></g></g></svg>
